<?xml version="1.0" encoding="utf-8"?>
<!-- Generator: Adobe Illustrator 20.1.0, SVG Export Plug-In . SVG Version: 6.00 Build 0)  -->
<svg version="1.1" id="Layer_1" xmlns="http://www.w3.org/2000/svg" xmlns:xlink="http://www.w3.org/1999/xlink" x="0px" y="0px"
	 viewBox="0 0 30 30" style="enable-background:new 0 0 30 30;" xml:space="preserve">
<style type="text/css">
	.st0{fill-rule:evenodd;clip-rule:evenodd;fill:#E54E8C;}
</style>
<g>
	<path class="st0" d="M15,0C6.7,0,0,6.7,0,15c0,8.3,6.7,15,15,15c8.3,0,15-6.7,15-15C30,6.7,23.3,0,15,0z M15,27.9
		C7.9,27.9,2.1,22.1,2.1,15S7.9,2.1,15,2.1c7.1,0,12.9,5.8,12.9,12.9S22.1,27.9,15,27.9z"/>
	<path class="st0" d="M17.7,15.8c1,2.6,1.3,4.7,1.4,5.2c1.6-1.1,2.8-2.8,3.1-4.9C21.9,16.1,19.9,15.5,17.7,15.8z"/>
	<path class="st0" d="M16.2,16.2c-4.1,1.4-5.6,4.3-5.7,4.5c1.2,1,2.8,1.5,4.5,1.5c1,0,2-0.2,2.8-0.6C17.7,21,17.3,18.8,16.2,16.2
		C16.3,16.2,16.3,16.2,16.2,16.2z"/>
	<path class="st0" d="M15.5,15.1c0.1,0,0.2-0.1,0.3-0.1c-0.2-0.4-0.4-0.8-0.6-1.2c-3.6,1.1-7.2,1-7.5,1c0,0.1,0,0.1,0,0.2
		c0,1.9,0.7,3.6,1.9,4.9C9.8,19.6,11.8,16.3,15.5,15.1z"/>
	<path class="st0" d="M14.6,12.6c-1.2-2.1-2.5-3.9-2.7-4.2c-2,1-3.6,2.8-4,5.1C8.2,13.5,11.2,13.5,14.6,12.6z"/>
	<path class="st0" d="M19.8,9.6c-1.3-1.1-3-1.8-4.8-1.8c-0.6,0-1.2,0.1-1.7,0.2c0.2,0.3,1.5,2.1,2.7,4.3
		C18.6,11.2,19.7,9.8,19.8,9.6z"/>
	<path class="st0" d="M16.6,13.3c0.2,0.3,0.3,0.7,0.5,1.1c0.1,0.1,0.1,0.3,0.2,0.4c2.4-0.3,4.8,0.2,5.1,0.2c0-1.7-0.6-3.3-1.6-4.5
		C20.5,10.6,19.3,12.2,16.6,13.3z"/>
</g>
</svg>
