<?xml version="1.0" encoding="utf-8"?>
<!-- Generator: Adobe Illustrator 20.1.0, SVG Export Plug-In . SVG Version: 6.00 Build 0)  -->
<svg version="1.1" id="Layer_1" xmlns="http://www.w3.org/2000/svg" xmlns:xlink="http://www.w3.org/1999/xlink" x="0px" y="0px"
	 width="1632px" height="116px" viewBox="0 0 1632 116" style="enable-background:new 0 0 1632 116;" xml:space="preserve">
<style type="text/css">
	.st0{fill:#E35028;}
	.st1{fill:#FFFFFF;}
	.st2{fill:#ED6B42;}
	.st3{fill:#2864AD;}
	.st4{fill:#397EC1;}
	.st5{fill:#5E4588;}
	.st6{fill:#4C4B4B;}
	.st7{fill:#FBFCFD;}
	.st8{fill:#C73089;}
	.st9{fill:#47A2DB;}
	.st10{fill:#FDFDFD;}
	.st11{fill:#EFDA4E;}
	.st12{fill:#343432;}
	.st13{fill:#0C6BAF;}
	.st14{fill:#F7A933;}
	.st15{fill:#85B8E4;}
</style>
<polygon class="st0" points="0,87 0,29 50,0 100,29 100,87 50,116 "/>
<polygon class="st1" points="95.6,84.5 50,110.9 4.4,84.5 4.4,31.5 50,5.1 95.6,31.5 "/>
<polygon class="st0" points="73.7,88.3 50,94.8 26.3,88.3 20.8,27.9 79.2,27.9 "/>
<polygon class="st2" points="50,31.9 50,90.1 69.3,84.3 74.3,31.9 "/>
<polygon class="st1" points="67.4,40.6 32.5,40.6 33.3,48.8 34.6,63.3 57.3,63.3 56.6,71.7 50,73.9 43.4,71.6 43,67.3 35,67.3 
	36,77.9 50,82.2 64,78.2 66.1,55.3 42.2,55.3 41.7,48.7 66.7,48.7 "/>
<polygon class="st0" points="102,87 102,29 152,0 202,29 202,87 152,116 "/>
<polygon class="st1" points="197.6,84.5 152,110.9 106.4,84.5 106.4,31.5 152,5.1 197.6,31.5 "/>
<polygon class="st3" points="204,87 204,29 254,0 304,29 304,87 254,116 "/>
<polygon class="st1" points="299.6,84.5 254,110.9 208.4,84.5 208.4,31.5 254,5.1 299.6,31.5 "/>
<polygon class="st3" points="277.7,88.4 254,94.8 230.3,88.4 224.8,27.9 283.2,27.9 "/>
<polygon class="st4" points="254,32 254,90.1 273.3,84.5 278.3,32 "/>
<polygon class="st1" points="271.4,40.4 236.5,40.4 237.3,48.8 254,48.8 237.8,55.1 238.6,63.4 261.3,63.4 260.6,71.8 254,73.9 
	247.4,71.8 246.8,67.6 239,67.6 240,78.1 254,82.3 268,78.1 270.1,55.1 254.1,55.1 270.7,48.8 "/>
<polygon class="st3" points="306,87 306,29 356,0 406,29 406,87 356,116 "/>
<polygon class="st1" points="401.6,84.5 356,110.9 310.4,84.5 310.4,31.5 356,5.1 401.6,31.5 "/>
<polygon class="st5" points="408,87 408,29 458,0 508,29 508,87 458,116 "/>
<polygon class="st1" points="503.6,84.5 458,110.9 412.4,84.5 412.4,31.5 458,5.1 503.6,31.5 "/>
<path class="st5" d="M444,62.3V79h12.3c4.8,0,7.7-0.1,9.1-0.3c2-0.3,3.6-1.2,4.8-2.5c1.3-1.3,1.8-3.1,1.8-5.3c0-1.8-0.5-3.4-1.4-4.8
	c-0.9-1.3-2.3-2.3-4.1-2.8c-1.8-0.6-5.7-0.9-11.8-0.9L444,62.3 M444,36.9v14.9h8.6c5.2,0,8.3-0.1,9.5-0.3c2.3-0.3,4-1,5.3-2.3
	s1.9-2.9,1.9-5c0-2-0.6-3.6-1.7-4.8c-1.1-1.3-2.8-2-4.9-2.3c-1.3-0.2-5-0.3-11.3-0.3L444,36.9z M432.2,26.5h24.9
	c4.9,0,8.6,0.2,11,0.7c2.4,0.4,4.6,1.3,6.5,2.6c1.9,1.3,3.5,3.1,4.8,5.3s1.9,4.7,1.9,7.4c0,3-0.8,5.7-2.2,8.2
	c-1.4,2.5-3.5,4.3-6,5.6c3.4,1.1,6.1,3,8,5.7c1.8,2.7,2.8,5.8,2.8,9.3c0,2.8-0.7,5.6-1.9,8.3c-1.3,2.7-3.1,4.8-5.3,6.4
	s-5,2.6-8.3,2.9c-2.1,0.3-7.1,0.3-15,0.4h-21L432.2,26.5z"/>
<polygon class="st5" points="510,87 510,29 560,0 610,29 610,87 560,116 "/>
<polygon class="st1" points="605.6,84.5 560,110.9 514.4,84.5 514.4,31.5 560,5.1 605.6,31.5 "/>
<polygon class="st6" points="612,87 612,29 662,0 712,29 712,87 662,116 "/>
<polygon class="st1" points="707.6,84.4 662,110.9 616.3,84.4 616.3,31.6 662,5.1 707.6,31.6 "/>
<path class="st6" d="M653.2,74.2h10.4c1.9,0,3.5,0.9,3.5,2s-1.6,2-3.5,2h-10.4c-1.9,0-3.5-0.9-3.5-2
	C649.7,75.2,651.3,74.2,653.2,74.2z"/>
<path class="st6" d="M626.6,32.1c0-1.9,1.6-3.5,3.5-3.5h56.5c1.9,0,3.5,1.6,3.5,3.5v36.5c0,1.9-1.6,3.5-3.5,3.5h-56.5
	c-1.9,0-3.5-1.6-3.5-3.5V32.1z M628.8,34.4c0-1.9,1.6-3.5,3.5-3.5h52.1c1.9,0,3.5,1.6,3.5,3.5V61c0,1.9-1.6,3.5-3.5,3.5h-52.1
	c-1.9,0-3.5-1.6-3.5-3.5V34.4z"/>
<path class="st7" d="M683,64.4h-49.3c-2,0-3.6-1.6-3.6-3.6V36c0-2,1.6-3.6,3.6-3.6H683c2,0,3.6,1.6,3.6,3.6v24.9
	C686.7,62.9,685,64.4,683,64.4z"/>
<rect x="633.3" y="55.8" class="st6" width="25" height="1.5"/>
<rect x="633.3" y="51.7" class="st6" width="44.3" height="1.5"/>
<rect x="633.3" y="59.9" class="st6" width="25" height="1.5"/>
<rect x="657.3" y="36.3" class="st8" width="15.2" height="8.1"/>
<rect x="633.3" y="47.6" class="st6" width="53.4" height="1.5"/>
<rect x="663.7" y="55.8" class="st9" width="12.2" height="5.6"/>
<path class="st10" d="M695.7,73.7H674V52.1c0-2.7,2.2-4.9,4.9-4.9h16.8V73.7z"/>
<path class="st6" d="M676,52.5c0-1.8,1.5-3.3,3.3-3.3h14.8c1.8,0,3.3,1.5,3.3,3.3V84c0,1.8-1.5,3.3-3.3,3.3h-14.8
	c-1.8,0-3.3-1.5-3.3-3.3V52.5z M678.8,55.5c0-0.8,0.7-1.6,1.6-1.6h12.5c0.8,0,1.6,0.7,1.6,1.6V79c0,0.8-0.7,1.6-1.6,1.6h-12.5
	c-0.8,0-1.6-0.7-1.6-1.6V55.5z"/>
<path class="st1" d="M680.5,53.9H693c0.8,0,1.6,0.7,1.6,1.6V79c0,0.8-0.7,1.6-1.6,1.6h-12.5c-0.8,0-1.6-0.7-1.6-1.6V55.5
	C678.9,54.7,679.6,53.9,680.5,53.9z"/>
<rect x="680.6" y="64.2" class="st6" width="12.2" height="0.8"/>
<rect x="680.7" y="66.5" class="st6" width="12.2" height="0.8"/>
<rect x="680.6" y="76.8" class="st6" width="12.2" height="0.8"/>
<circle class="st1" cx="686.8" cy="83.2" r="1.3"/>
<rect x="680.7" y="68.7" class="st9" width="12.2" height="5.6"/>
<rect x="680.6" y="55.9" class="st8" width="12.2" height="5.6"/>
<path class="st1" d="M684.3,51.9h5c0.8,0,1.6,0.2,1.6,0.3s-0.7,0.3-1.6,0.3h-5c-0.8,0-1.6-0.2-1.6-0.3S683.3,51.9,684.3,51.9z"/>
<polygon class="st6" points="714,87 714,29 764,0 814,29 814,87 764,116 "/>
<polygon class="st1" points="809.6,84.4 764,110.9 718.3,84.4 718.3,31.6 764,5.1 809.6,31.6 "/>
<polygon class="st11" points="816,87 816,29 866,0 916,29 916,87 866,116 "/>
<polygon class="st1" points="911.6,84.5 866,110.9 820.4,84.5 820.4,31.5 866,5.1 911.6,31.5 "/>
<path class="st12" d="M845.4,31h12.1v34c0,15.4-7.3,20.7-19,20.7c-3,0-6.5-0.4-8.9-1.2l1.4-9.8c1.7,0.6,3.8,1,6.3,1
	c5.2,0,8.3-2.3,8.3-10.5L845.4,31z"/>
<path class="st12" d="M868.1,72.4c3.2,1.7,8.3,3.3,13.4,3.3c5.6,0,8.4-2.3,8.4-5.9c0-3.3-2.5-5.3-9-7.4c-8.9-3.2-14.8-8.1-14.8-16.1
	c0-9,7.8-16,20.4-16c6-0.1,10.4,1.2,13.7,2.8l-2.8,9.7c-2.1-1-5.9-2.5-11.1-2.5c-5.3,0-7.8,2.5-7.8,5.2c0,3.5,3,4.9,10,7.6
	c9.3,3.5,13.8,8.4,13.8,16.2c0,9-6.8,16.8-21.6,16.8c-6.2,0-12.2-1.7-15.3-3.3L868.1,72.4z"/>
<polygon class="st11" points="918,87 918,29 968,0 1018,29 1018,87 968,116 "/>
<polygon class="st1" points="1013.6,84.5 968,110.9 922.4,84.5 922.4,31.5 968,5.1 1013.6,31.5 "/>
<polygon class="st13" points="1020,87 1020,29 1070,0 1120,29 1120,87 1070,116 "/>
<polygon class="st1" points="1115.6,84.5 1070,110.9 1024.4,84.5 1024.4,31.5 1070,5.1 1115.6,31.5 "/>
<path class="st13" d="M1063.2,29.6c-2.7,4.7-3,10.4-1.4,15.6c1.4,4.9,4.5,9.3,8.4,12.4l0.3,0.2c0.3,0.3,0.8,0.6,1.1,0.8
	c0.2,0.1,0.3,0.3,0.5,0.3l0.3,0.2c0.3,0.2,0.5,0.3,0.8,0.5l0.2,0.1c0.3,0.2,0.4,0.3,0.7,0.4c0.1,0.1,0.2,0.1,0.3,0.2
	c0.2,0.1,0.3,0.2,0.5,0.3c0.3,0.2,0.7,0.3,1.1,0.5l0.3,0.1c0.3,0.1,0.6,0.3,0.8,0.3l0.3,0.2c0.3,0.1,0.5,0.2,0.8,0.3l0.3,0.1
	c0.4,0.1,0.8,0.3,1.2,0.3c8.8,2.4,17.2-0.7,21.4-7.1c0,0-4.8,16.6-25.3,12.9c-0.4-0.1-0.8-0.3-1.2-0.3l-0.3-0.1
	c-0.2-0.1-0.5-0.2-0.8-0.3l-0.3-0.2c-0.3-0.1-0.6-0.3-0.8-0.3l-0.3-0.1c-0.3-0.2-0.7-0.3-1.1-0.5c-0.3-0.1-0.4-0.2-0.6-0.3l-0.3-0.2
	c-0.3-0.2-0.5-0.3-0.8-0.4l-0.1-0.1c-0.2-0.2-0.6-0.3-0.8-0.5l-0.3-0.2c-0.2-0.1-0.3-0.3-0.5-0.3c-0.4-0.3-0.8-0.6-1.2-0.8l-0.3-0.2
	c-0.3-0.3-0.8-0.6-1.1-0.9c-0.3-0.3-0.7-0.6-0.9-0.9l-0.3-0.3c-0.3-0.3-0.6-0.7-0.9-0.9c-0.8-0.7-1.4-1.8-2.1-2.7
	c-0.7-1-1.3-2-1.8-3.1c-3.1-6.3-3.3-14.3,0.7-20.4L1063.2,29.6z"/>
<path class="st13" d="M1047.1,35.7c-4.8,9.8-2.7,21.7,3.4,30.3c0.3,0.3,0.4,0.6,0.7,0.9l0.2,0.3c0.2,0.3,0.4,0.5,0.6,0.8l0.2,0.3
	c0.3,0.3,0.5,0.7,0.8,0.9c0.3,0.3,0.6,0.7,0.8,0.9l0.3,0.3c0.2,0.3,0.4,0.4,0.7,0.7l0.3,0.3c0.3,0.3,0.6,0.6,0.9,0.8
	c0.3,0.3,0.7,0.6,0.9,0.8c0.1,0.1,0.2,0.2,0.3,0.3c0.3,0.2,0.4,0.3,0.7,0.6l0.3,0.3c0.3,0.2,0.5,0.4,0.8,0.6l0.3,0.2
	c0.3,0.2,0.5,0.3,0.8,0.6c0.1,0.1,0.2,0.2,0.3,0.2c0.3,0.3,0.8,0.5,1.2,0.8l0.3,0.2c0.3,0.2,0.6,0.3,0.8,0.5
	c0.2,0.1,0.3,0.2,0.5,0.3c0.3,0.1,0.5,0.3,0.8,0.4l0.3,0.1c0.3,0.2,0.6,0.3,0.9,0.4l0.3,0.1c0.3,0.2,0.8,0.3,1.1,0.5l0.3,0.1
	c0.3,0.2,0.7,0.3,1,0.4c0.5,0.2,0.9,0.3,1.3,0.4c0.1,0,0.2,0.1,0.3,0.1c0.4,0.1,0.8,0.3,1.3,0.3c10.9,2.6,22.5,0.3,29-8.5
	c0,0-7.8,21.8-34.4,16.8c-0.4-0.1-0.8-0.3-1.3-0.3l-0.3-0.1c-0.4-0.1-0.8-0.3-1.2-0.4c-0.5-0.2-0.8-0.3-1.2-0.4l-0.3-0.1
	c-0.3-0.2-0.8-0.3-1.1-0.5l-0.2-0.1c-0.3-0.2-0.7-0.3-1-0.4l-0.3-0.1c-0.3-0.2-0.5-0.3-0.8-0.4c-0.2-0.1-0.3-0.2-0.5-0.3
	c-0.3-0.2-0.6-0.3-0.8-0.5c-0.1-0.1-0.2-0.1-0.3-0.2c-0.4-0.3-0.8-0.5-1.2-0.8c-0.1-0.1-0.2-0.2-0.3-0.2c-0.3-0.2-0.5-0.3-0.8-0.5
	c-0.2-0.1-0.3-0.2-0.3-0.3c-0.3-0.2-0.5-0.3-0.8-0.6l-0.3-0.3c-0.3-0.2-0.4-0.3-0.7-0.5l-0.3-0.3c-0.3-0.3-0.5-0.4-0.8-0.7l-0.2-0.1
	c-0.3-0.3-0.6-0.6-0.9-0.8l-0.3-0.3c-0.3-0.2-0.4-0.4-0.7-0.7l-0.3-0.3c-0.2-0.3-0.5-0.6-0.8-0.8c-0.3-0.3-0.6-0.7-0.8-1l-0.2-0.3
	c-0.2-0.3-0.3-0.5-0.6-0.8c-0.1-0.1-0.2-0.2-0.3-0.3c-0.2-0.3-0.4-0.6-0.6-0.8l-0.1-0.2c-0.3-0.3-0.5-0.7-0.7-1
	c-0.1-0.1-0.1-0.2-0.2-0.3c-0.2-0.3-0.3-0.5-0.4-0.8c-0.1-0.1-0.2-0.3-0.3-0.4c-0.2-0.3-0.3-0.5-0.4-0.7s-0.2-0.3-0.3-0.4l-0.1-0.3
	c-0.1-0.1-0.1-0.3-0.2-0.4c-0.1-0.2-0.2-0.4-0.3-0.6c-4.3-8.8-4.9-19.5,0.6-27.8L1047.1,35.7z"/>
<path class="st13" d="M1076.1,26.7c-3.3,6.1-0.2,13.6,4.8,17.6c0.8,0.7,1.8,1.3,2.8,1.8c0.5,0.3,1.1,0.5,1.6,0.7
	c0.4,0.2,0.9,0.3,1.3,0.4c5.6,1.4,10.1,0.4,12.8-3.6c-0.8,1.3-3.9,9.6-15.3,7.3c-0.3,0-0.5-0.2-0.8-0.3l-0.3-0.1
	c-0.2-0.1-0.3-0.1-0.5-0.2c-4.1-1.6-7.7-4.8-9.3-9.1c-1.7-4-1.4-8.4,0.9-12L1076.1,26.7z"/>
<polygon class="st13" points="1122,87 1122,29 1172,0 1222,29 1222,87 1172,116 "/>
<polygon class="st1" points="1217.6,84.5 1172,110.9 1126.4,84.5 1126.4,31.5 1172,5.1 1217.6,31.5 "/>
<polygon class="st14" points="1224,87 1224,29 1274,0 1324,29 1324,87 1274,116 "/>
<polygon class="st1" points="1319.6,84.5 1274,110.9 1228.4,84.5 1228.4,31.5 1274,5.1 1319.6,31.5 "/>
<path class="st14" d="M1258.3,70l-4.5,15h-9.9l16.8-52.8h12.3l17.1,52.8h-10.3l-4.8-15H1258.3z M1273.4,62.8l-4.2-12.9
	c-1-3.2-1.8-6.8-2.7-9.8h-0.2c-0.8,3-1.6,6.8-2.5,9.8l-4.1,12.9L1273.4,62.8z"/>
<path class="st14" d="M1304.1,36.2c0,2.9-2.1,5.2-5.5,5.2c-3.2,0-5.3-2.3-5.3-5.2c0-3,2.2-5.3,5.4-5.3
	C1302,31,1304,33.2,1304.1,36.2z M1293.9,85V46.9h9.7V85H1293.9z"/>
<polygon class="st14" points="1326,87 1326,29 1376,0 1426,29 1426,87 1376,116 "/>
<polygon class="st1" points="1421.6,84.5 1376,110.9 1330.4,84.5 1330.4,31.5 1376,5.1 1421.6,31.5 "/>
<polygon class="st15" points="1428,87 1428,29 1478,0 1528,29 1528,87 1478,116 "/>
<polygon class="st1" points="1523.6,84.5 1478,110.9 1432.4,84.5 1432.4,31.5 1478,5.1 1523.6,31.5 "/>
<path class="st15" d="M1445.9,32.3c3.4-0.6,8.2-1.1,14.5-1.1c7,0,12.1,1.5,15.4,4.3c3.1,2.6,5.1,6.7,5.1,11.5c0,5-1.6,9.1-4.5,11.9
	c-3.8,3.8-9.8,5.6-16.5,5.6c-1.8,0-3.4-0.1-4.7-0.3V84h-9.4L1445.9,32.3z M1455.3,56.7c1.2,0.3,2.7,0.4,4.7,0.4
	c7.1,0,11.4-3.5,11.4-9.6c0-5.8-4-8.9-10.6-8.9c-2.7,0-4.5,0.3-5.5,0.4V56.7z"/>
<path class="st15" d="M1485.2,75.2c2.2,1.3,6.3,2.8,9.7,2.8c4.2,0,6-1.7,6-4.2c0-2.6-1.6-3.9-6.2-5.5c-7.3-2.6-10.4-6.6-10.3-11
	c0-6.7,5.5-11.9,14.3-11.9c4.2,0,7.8,1.1,10,2.3l-1.8,6.8c-1.6-0.9-4.7-2.2-8-2.2c-3.4,0-5.3,1.6-5.3,3.9c0,2.4,1.8,3.6,6.6,5.3
	c6.8,2.5,10,5.9,10.1,11.5c0,6.8-5.3,11.8-15.3,11.8c-4.6,0-8.7-1.1-11.4-2.7L1485.2,75.2z"/>
<polygon class="st15" points="1530,87 1530,29 1580,0 1630,29 1630,87 1580,116 "/>
<polygon class="st1" points="1625.6,84.5 1580,110.9 1534.4,84.5 1534.4,31.5 1580,5.1 1625.6,31.5 "/>
<path d="M519.8,65.3h-1.9V51.7h5.4c0.5,0,1,0.1,1.5,0.3s0.9,0.5,1.2,0.8s0.6,0.8,0.8,1.2s0.3,1,0.3,1.5c0,0.3,0,0.6-0.1,0.9
	c-0.1,0.3-0.2,0.6-0.4,0.9c-0.1,0.3-0.3,0.5-0.5,0.7s-0.4,0.3-0.6,0.3h0.2l0.2,0.1l0.3,0.1l0.2,0.2c0.4,0.4,0.7,0.8,0.9,1.3
	s0.4,1,0.4,1.6c0,0.5-0.1,1.1-0.3,1.5c-0.2,0.5-0.5,0.9-0.8,1.2c-0.4,0.4-0.8,0.6-1.2,0.8c-0.5,0.2-1,0.3-1.5,0.3L519.8,65.3z
	 M519.8,53.5v3.9h3.5c0.3,0,0.5-0.1,0.8-0.2c0.2-0.1,0.4-0.2,0.6-0.4c0.2-0.2,0.3-0.4,0.4-0.6c0.1-0.2,0.2-0.5,0.2-0.8
	s-0.1-0.5-0.2-0.8c-0.1-0.2-0.2-0.4-0.4-0.6c-0.2-0.2-0.4-0.3-0.6-0.4c-0.2-0.1-0.5-0.2-0.8-0.2L519.8,53.5L519.8,53.5z M523.8,63.4
	c0.3,0,0.6-0.1,0.8-0.2c0.2-0.1,0.5-0.3,0.6-0.4c0.2-0.2,0.3-0.4,0.4-0.7c0.1-0.2,0.2-0.5,0.2-0.8s-0.1-0.5-0.2-0.8
	c-0.1-0.2-0.3-0.5-0.4-0.6c-0.2-0.2-0.4-0.3-0.6-0.4c-0.2-0.1-0.5-0.2-0.8-0.2h-4v4.1C519.8,63.4,523.8,63.4,523.8,63.4z"/>
<path d="M529.5,60.3c0-0.7,0.1-1.4,0.4-2c0.3-0.6,0.6-1.2,1.1-1.6c0.5-0.5,1-0.8,1.6-1.1s1.3-0.4,2-0.4s1.4,0.1,2,0.4
	c0.6,0.3,1.2,0.6,1.6,1.1c0.5,0.5,0.8,1,1.1,1.6s0.4,1.3,0.4,2s-0.1,1.4-0.4,2c-0.3,0.6-0.6,1.2-1.1,1.6c-0.5,0.5-1,0.8-1.6,1.1
	s-1.3,0.4-2,0.4s-1.4-0.1-2-0.4s-1.2-0.6-1.6-1.1c-0.5-0.5-0.8-1-1.1-1.6C529.6,61.7,529.5,61,529.5,60.3z M531.3,60.3
	c0,0.5,0.1,0.9,0.3,1.3c0.2,0.4,0.4,0.7,0.7,1s0.6,0.5,1,0.7s0.8,0.3,1.3,0.3s0.9-0.1,1.3-0.3c0.4-0.2,0.7-0.4,1-0.7s0.5-0.6,0.7-1
	s0.3-0.8,0.3-1.3s-0.1-0.9-0.3-1.3c-0.2-0.4-0.4-0.7-0.7-1s-0.6-0.5-1-0.7s-0.8-0.3-1.3-0.3s-0.9,0.1-1.3,0.3
	c-0.4,0.2-0.7,0.4-1,0.7s-0.5,0.6-0.7,1C531.4,59.4,531.3,59.8,531.3,60.3z"/>
<path d="M541.1,60.3c0-0.7,0.1-1.4,0.4-2c0.3-0.6,0.6-1.2,1.1-1.6c0.5-0.5,1-0.8,1.6-1.1s1.3-0.4,2-0.4s1.4,0.1,2,0.4
	c0.6,0.3,1.2,0.6,1.6,1.1c0.5,0.5,0.8,1,1.1,1.6s0.4,1.3,0.4,2s-0.1,1.4-0.4,2c-0.3,0.6-0.6,1.2-1.1,1.6c-0.5,0.5-1,0.8-1.6,1.1
	s-1.3,0.4-2,0.4s-1.4-0.1-2-0.4s-1.2-0.6-1.6-1.1c-0.5-0.5-0.8-1-1.1-1.6C541.3,61.7,541.1,61,541.1,60.3z M543,60.3
	c0,0.5,0.1,0.9,0.3,1.3c0.2,0.4,0.4,0.7,0.7,1s0.6,0.5,1,0.7s0.8,0.3,1.3,0.3s0.9-0.1,1.3-0.3c0.4-0.2,0.7-0.4,1-0.7s0.5-0.6,0.7-1
	s0.3-0.8,0.3-1.3s-0.1-0.9-0.3-1.3c-0.2-0.4-0.4-0.7-0.7-1s-0.6-0.5-1-0.7s-0.8-0.3-1.3-0.3s-0.9,0.1-1.3,0.3
	c-0.4,0.2-0.7,0.4-1,0.7s-0.5,0.6-0.7,1C543,59.4,543,59.8,543,60.3z"/>
<path d="M555.7,62.8c0,0.1,0,0.2,0,0.3s0.1,0.2,0.1,0.3l0.2,0.2c0.1,0.1,0.2,0.1,0.3,0.1h0.2c0.3-0.1,0.5-0.1,0.7-0.1
	c0.3,0,0.5,0.1,0.7,0.2s0.4,0.3,0.5,0.5l0.2,0.3c-0.1,0.1-0.3,0.2-0.5,0.3c-0.2,0.1-0.4,0.2-0.6,0.3c-0.2,0.1-0.4,0.1-0.7,0.2
	c-0.2,0.1-0.4,0.1-0.6,0.1c-0.4,0-0.8-0.1-1.1-0.2s-0.6-0.3-0.8-0.6c-0.2-0.2-0.4-0.5-0.5-0.8s-0.2-0.7-0.2-1.1v-5.7h-1.7v-1
	c0-0.5,0.5-0.8,1.5-0.8h0.2v-2.1c0-0.2,0-0.4,0.1-0.6c0-0.2,0.1-0.3,0.2-0.5c0.1-0.2,0.1-0.3,0.2-0.4h1.4v3.5h2.8V57h-2.8v5.8H555.7
	z"/>
<path d="M560.2,63.1c0.1-0.1,0.3-0.1,0.4-0.2c0.1,0,0.2-0.1,0.4-0.1s0.3,0,0.5,0.1c0.1,0.1,0.3,0.2,0.5,0.3c0.1,0.1,0.3,0.2,0.5,0.2
	s0.3,0.1,0.5,0.1s0.4,0,0.6-0.1s0.4-0.1,0.5-0.3c0.2-0.1,0.3-0.3,0.4-0.4c0.1-0.2,0.1-0.4,0.1-0.6c0-0.2,0-0.3-0.1-0.5
	c-0.1-0.1-0.1-0.2-0.3-0.3c-0.1-0.1-0.3-0.2-0.5-0.3s-0.5-0.2-0.8-0.3s-0.7-0.3-1-0.4c-0.3-0.2-0.6-0.3-0.9-0.6
	c-0.3-0.2-0.5-0.5-0.6-0.8c-0.2-0.3-0.2-0.7-0.2-1.1c0-0.4,0.1-0.7,0.3-1.1c0.2-0.3,0.4-0.6,0.7-0.9c0.3-0.2,0.6-0.4,1-0.6
	c0.4-0.1,0.7-0.2,1.1-0.2c0.4,0,0.7,0.1,1.1,0.2c0.3,0.1,0.6,0.3,0.8,0.5s0.4,0.3,0.6,0.5c0.1,0.2,0.2,0.3,0.3,0.3l-0.4,0.4
	c-0.3,0.2-0.6,0.3-0.9,0.3c-0.1,0-0.3,0-0.4-0.1c-0.1-0.1-0.3-0.1-0.5-0.2c-0.1-0.1-0.3-0.1-0.4-0.1c-0.2,0-0.5,0-0.6,0.1
	c-0.2,0.1-0.3,0.2-0.4,0.3s-0.2,0.2-0.2,0.3s-0.1,0.2-0.1,0.3c0,0.2,0,0.3,0.1,0.5c0.1,0.1,0.2,0.2,0.4,0.3s0.3,0.2,0.5,0.2
	c0.2,0.1,0.4,0.1,0.6,0.2c0.4,0.1,0.7,0.3,1.1,0.4c0.4,0.2,0.7,0.4,0.9,0.6c0.3,0.2,0.5,0.5,0.7,0.9c0.2,0.3,0.2,0.7,0.2,1.2
	c0,0.4-0.1,0.8-0.3,1.2s-0.4,0.7-0.7,1c-0.3,0.3-0.7,0.5-1.1,0.7c-0.4,0.2-0.9,0.3-1.4,0.3c-0.3,0-0.7,0-1-0.1s-0.6-0.2-0.9-0.4
	c-0.3-0.2-0.5-0.4-0.8-0.6c-0.2-0.2-0.4-0.5-0.6-0.8L560.2,63.1z"/>
<path d="M571,62.8c0,0.1,0,0.2,0,0.3s0.1,0.2,0.1,0.3l0.2,0.2c0.1,0.1,0.2,0.1,0.3,0.1h0.2c0.3-0.1,0.5-0.1,0.7-0.1
	c0.3,0,0.5,0.1,0.7,0.2s0.4,0.3,0.5,0.5l0.2,0.3c-0.1,0.1-0.3,0.2-0.5,0.3c-0.2,0.1-0.4,0.2-0.6,0.3c-0.2,0.1-0.4,0.1-0.7,0.2
	c-0.2,0.1-0.4,0.1-0.6,0.1c-0.4,0-0.8-0.1-1.1-0.2s-0.6-0.3-0.8-0.6c-0.2-0.2-0.4-0.5-0.5-0.8s-0.2-0.7-0.2-1.1v-5.7h-1.7v-1
	c0-0.5,0.5-0.8,1.5-0.8h0.2v-2.1c0-0.2,0-0.4,0.1-0.6c0-0.2,0.1-0.3,0.2-0.5c0.1-0.2,0.1-0.3,0.2-0.4h1.4v3.5h2.8V57H571V62.8z"/>
<path d="M577.4,55.3l0.1,0.2c0,0.1,0.1,0.2,0.1,0.3s0,0.2,0,0.3v0.7c0.1-0.2,0.3-0.4,0.5-0.6c0.2-0.2,0.4-0.4,0.7-0.5
	s0.5-0.3,0.8-0.4c0.3-0.1,0.6-0.1,0.9-0.1c0.5,0,1,0.1,1.5,0.3l-0.1,0.8c-0.1,0.3-0.2,0.5-0.3,0.6c-0.2,0.1-0.4,0.2-0.7,0.2h-0.1
	l0,0h-0.1h-0.2c-0.4,0-0.7,0.1-1.1,0.2c-0.3,0.1-0.6,0.3-0.9,0.4s-0.5,0.4-0.6,0.6c-0.2,0.2-0.2,0.5-0.3,0.7v6.3h-1.9v-10
	C575.7,55.3,577.4,55.3,577.4,55.3z"/>
<path d="M583.1,56.8c0.1-0.1,0.1-0.2,0.2-0.3c0.1-0.1,0.2-0.2,0.3-0.3s0.2-0.2,0.4-0.3c0.4-0.2,0.8-0.4,1.2-0.6
	c0.4-0.1,0.9-0.2,1.5-0.2c0.5,0,1,0.1,1.4,0.2s0.8,0.3,1,0.6c0.3,0.2,0.5,0.5,0.7,0.8s0.3,0.7,0.4,1.1c0.1,0.4,0.2,0.8,0.2,1.2
	s0.1,0.8,0.1,1.3v5H589c-0.1-0.1-0.2-0.2-0.2-0.4s-0.1-0.3-0.1-0.4v-0.3c-0.2,0.2-0.4,0.3-0.6,0.5c-0.3,0.1-0.5,0.3-0.8,0.4
	s-0.5,0.2-0.8,0.2c-0.3,0.1-0.5,0.1-0.7,0.1c-0.5,0-1-0.1-1.4-0.2s-0.8-0.3-1.1-0.6s-0.5-0.6-0.7-1s-0.2-0.8-0.2-1.2
	c0-0.5,0.1-0.9,0.3-1.3c0.2-0.4,0.5-0.7,0.8-1c0.4-0.3,0.9-0.5,1.4-0.7c0.6-0.2,1.2-0.2,2-0.2c0.2,0,0.4,0,0.6,0c0.2,0,0.4,0,0.5,0
	c0.2,0,0.3,0,0.4,0c0.1,0,0.2,0,0.2,0c0-0.5-0.1-0.9-0.2-1.2c-0.1-0.3-0.3-0.5-0.5-0.7s-0.4-0.3-0.6-0.4c-0.2-0.1-0.5-0.1-0.7-0.1
	c-0.3,0-0.6,0-0.7,0.1c-0.2,0.1-0.3,0.1-0.5,0.2c-0.1,0.1-0.3,0.1-0.4,0.2c-0.1,0.1-0.3,0.1-0.5,0.1s-0.3,0-0.5-0.1
	c-0.1-0.1-0.3-0.1-0.4-0.2L583.1,56.8z M585.7,63.6c0.2,0,0.5,0,0.7-0.1c0.3,0,0.5-0.1,0.8-0.2s0.5-0.2,0.8-0.3s0.5-0.2,0.7-0.4V61
	c0,0-0.1,0-0.2,0c-0.1,0-0.2,0-0.4,0s-0.3,0-0.5,0s-0.4,0-0.6,0c-0.4,0-0.8,0-1.1,0.1s-0.6,0.1-0.9,0.2c-0.3,0.1-0.4,0.3-0.6,0.4
	c-0.1,0.2-0.2,0.4-0.2,0.7c0,0.2,0,0.4,0.1,0.6c0.1,0.2,0.2,0.3,0.3,0.4c0.1,0.1,0.3,0.2,0.5,0.2C585.3,63.6,585.5,63.6,585.7,63.6z
	"/>
<path d="M594.7,55.3l0.1,0.2c0,0.1,0.1,0.2,0.1,0.3s0,0.2,0,0.3v0.4c0-0.2,0.1-0.3,0.2-0.5c0.1-0.1,0.2-0.2,0.4-0.3s0.3-0.2,0.5-0.2
	c0.2-0.1,0.4-0.1,0.6-0.2c0.2,0,0.4-0.1,0.5-0.1s0.3,0,0.4,0c0.7,0,1.4,0.1,2,0.4c0.6,0.3,1.1,0.6,1.6,1.1c0.4,0.5,0.8,1,1,1.6
	c0.3,0.6,0.4,1.3,0.4,2s-0.1,1.4-0.4,2c-0.3,0.6-0.6,1.2-1,1.6c-0.4,0.5-1,0.8-1.6,1.1s-1.3,0.4-2,0.4c-0.2,0-0.4,0-0.7,0
	s-0.4-0.1-0.7-0.2c-0.2-0.1-0.4-0.2-0.7-0.3c-0.2-0.1-0.4-0.3-0.6-0.5v4.1h-1.9V55.3H594.7z M597.6,63.6c0.5,0,0.9-0.1,1.3-0.3
	c0.4-0.2,0.7-0.4,1-0.7s0.5-0.6,0.6-1c0.2-0.4,0.2-0.8,0.2-1.3s-0.1-0.9-0.2-1.3c-0.2-0.4-0.4-0.7-0.6-1c-0.3-0.3-0.6-0.5-1-0.7
	s-0.8-0.3-1.3-0.3s-1,0.1-1.4,0.3s-0.9,0.5-1.2,0.8v4.4c0.3,0.3,0.7,0.6,1.2,0.8C596.6,63.5,597.1,63.6,597.6,63.6z"/>
<path d="M722.1,55.8h-1.7V43.6h4.4c0.5,0,1,0.1,1.4,0.3s0.8,0.4,1.1,0.8c0.3,0.3,0.6,0.7,0.8,1.1s0.3,0.9,0.3,1.4
	c0,0.4-0.1,0.8-0.2,1.1c-0.1,0.4-0.3,0.7-0.5,1s-0.5,0.6-0.8,0.8s-0.6,0.4-1,0.5l3.9,5.2h-1.2c-0.3,0-0.6-0.1-0.9-0.2
	c-0.3-0.1-0.5-0.3-0.6-0.6l-3.2-4.3h-1.8V55.8z M722.1,45.3V49h2.7c0.3,0,0.5,0,0.7-0.1s0.4-0.2,0.6-0.4s0.3-0.4,0.4-0.6
	c0.1-0.2,0.1-0.5,0.1-0.7c0-0.3,0-0.5-0.1-0.7s-0.2-0.4-0.4-0.6c-0.2-0.2-0.4-0.3-0.6-0.4c-0.2-0.1-0.5-0.1-0.7-0.1h-2.7V45.3z"/>
<path d="M739.2,50.6c0,0.2,0,0.4-0.1,0.5c-0.1,0.2-0.2,0.3-0.3,0.4c-0.1,0.1-0.2,0.2-0.4,0.3c-0.1,0.1-0.3,0.1-0.4,0.1h-6.2
	c0.1,0.3,0.2,0.7,0.3,1c0.2,0.3,0.4,0.6,0.7,0.8s0.6,0.4,0.9,0.5c0.3,0.1,0.7,0.2,1,0.2s0.5,0,0.8-0.1c0.2-0.1,0.5-0.2,0.7-0.3
	c0.1-0.1,0.2-0.1,0.3-0.1s0.2,0,0.4,0s0.3,0,0.5,0.1c0.1,0.1,0.3,0.2,0.4,0.3l0.3,0.3c-0.4,0.5-0.9,0.8-1.5,1.1s-1.2,0.4-1.9,0.4
	c-0.6,0-1.2-0.1-1.8-0.4s-1-0.6-1.5-1c-0.4-0.4-0.7-0.9-1-1.5c-0.2-0.6-0.4-1.2-0.4-1.8s0.1-1.2,0.4-1.8c0.2-0.6,0.6-1,1-1.5
	c0.4-0.4,0.9-0.7,1.5-1c0.6-0.2,1.2-0.4,1.8-0.4c0.5,0,1,0.1,1.5,0.3s0.9,0.4,1.3,0.7c0.4,0.3,0.7,0.7,1,1.1s0.5,0.9,0.6,1.4v0.2
	L739.2,50.6z M732.4,50.2h5c-0.1-0.3-0.3-0.5-0.4-0.7c-0.2-0.2-0.4-0.4-0.6-0.6c-0.2-0.2-0.5-0.3-0.8-0.4c-0.3-0.1-0.6-0.1-0.9-0.1
	c-0.3,0-0.7,0.1-1,0.2c-0.3,0.1-0.6,0.3-0.8,0.4c-0.2,0.2-0.5,0.4-0.6,0.7c-0.2,0.3-0.3,0.5-0.4,0.8c0-0.1,0.1-0.1,0.2-0.2
	C732.2,50.2,732.3,50.2,732.4,50.2z"/>
<path d="M740.8,53.9c0.1-0.1,0.2-0.1,0.3-0.1s0.2-0.1,0.3-0.1s0.3,0,0.4,0.1s0.3,0.2,0.5,0.3c0.1,0.1,0.3,0.2,0.4,0.2
	c0.2,0,0.3,0.1,0.5,0.1s0.4,0,0.5-0.1c0.2-0.1,0.3-0.1,0.5-0.2c0.1-0.1,0.2-0.2,0.3-0.4s0.1-0.3,0.1-0.5s0-0.3-0.1-0.4
	c0-0.1-0.1-0.2-0.3-0.3c-0.1-0.1-0.3-0.2-0.5-0.3s-0.5-0.2-0.8-0.3s-0.6-0.2-0.9-0.4c-0.3-0.1-0.6-0.3-0.8-0.5s-0.4-0.4-0.6-0.7
	c-0.1-0.3-0.2-0.6-0.2-1c0-0.3,0.1-0.7,0.2-1c0.2-0.3,0.4-0.6,0.6-0.8c0.3-0.2,0.6-0.4,0.9-0.5c0.3-0.1,0.7-0.2,1-0.2
	s0.7,0.1,0.9,0.2c0.3,0.1,0.5,0.3,0.7,0.4c0.2,0.2,0.4,0.3,0.5,0.5c0.1,0.1,0.2,0.2,0.2,0.3l-0.4,0.3c-0.2,0.2-0.5,0.3-0.8,0.3
	c-0.1,0-0.2,0-0.4-0.1c-0.1,0-0.3-0.1-0.4-0.2c-0.1-0.1-0.2-0.1-0.4-0.1s-0.4,0-0.5,0.1s-0.3,0.1-0.3,0.2c-0.1,0.1-0.1,0.2-0.2,0.3
	c0,0.1-0.1,0.2-0.1,0.2c0,0.2,0,0.3,0.1,0.4c0.1,0.1,0.2,0.2,0.3,0.3s0.3,0.2,0.5,0.2c0.2,0.1,0.3,0.1,0.5,0.2
	c0.3,0.1,0.7,0.2,1,0.4c0.3,0.1,0.6,0.3,0.8,0.5s0.4,0.5,0.6,0.8c0.1,0.3,0.2,0.7,0.2,1.1c0,0.4-0.1,0.7-0.2,1.1
	c-0.2,0.3-0.4,0.6-0.6,0.9c-0.3,0.3-0.6,0.5-1,0.6c-0.4,0.2-0.8,0.2-1.2,0.2c-0.3,0-0.6,0-0.9-0.1c-0.3-0.1-0.6-0.2-0.8-0.4
	c-0.3-0.2-0.5-0.3-0.7-0.6c-0.2-0.2-0.4-0.5-0.5-0.8L740.8,53.9z"/>
<path d="M749.7,46.9l0.1,0.2l0.1,0.2c0,0.1,0,0.2,0,0.3v0.3c0-0.2,0.1-0.3,0.2-0.4c0.1-0.1,0.2-0.2,0.3-0.3s0.3-0.2,0.5-0.2
	c0.2-0.1,0.3-0.1,0.5-0.1s0.3-0.1,0.5-0.1s0.3,0,0.4,0c0.6,0,1.2,0.1,1.8,0.4c0.5,0.2,1,0.6,1.4,1s0.7,0.9,0.9,1.5s0.3,1.2,0.3,1.8
	s-0.1,1.2-0.3,1.8s-0.5,1-0.9,1.5c-0.4,0.4-0.9,0.7-1.4,1c-0.5,0.2-1.1,0.4-1.8,0.4c-0.2,0-0.4,0-0.6,0s-0.4-0.1-0.6-0.1
	c-0.2-0.1-0.4-0.2-0.6-0.3c-0.2-0.1-0.4-0.3-0.5-0.4v3.7h-1.7V46.9H749.7z M752.3,54.3c0.4,0,0.8-0.1,1.1-0.2s0.6-0.4,0.9-0.6
	c0.2-0.3,0.4-0.6,0.6-0.9c0.1-0.4,0.2-0.7,0.2-1.1c0-0.4-0.1-0.8-0.2-1.1c-0.1-0.4-0.3-0.7-0.6-0.9c-0.2-0.3-0.5-0.5-0.9-0.6
	s-0.7-0.2-1.1-0.2c-0.4,0-0.9,0.1-1.3,0.3c-0.4,0.2-0.8,0.4-1.1,0.7v4c0.3,0.3,0.6,0.5,1.1,0.7C751.4,54.2,751.9,54.3,752.3,54.3z"
	/>
<path d="M757.9,51.3c0-0.6,0.1-1.2,0.4-1.8c0.2-0.6,0.6-1,1-1.5c0.4-0.4,0.9-0.7,1.5-1c0.6-0.2,1.2-0.4,1.8-0.4s1.2,0.1,1.8,0.4
	c0.6,0.2,1,0.6,1.5,1c0.4,0.4,0.7,0.9,1,1.5c0.2,0.6,0.4,1.2,0.4,1.8s-0.1,1.2-0.4,1.8c-0.2,0.6-0.6,1-1,1.5c-0.4,0.4-0.9,0.7-1.5,1
	c-0.6,0.2-1.2,0.4-1.8,0.4s-1.2-0.1-1.8-0.4s-1-0.6-1.5-1c-0.4-0.4-0.7-0.9-1-1.5C758,52.6,757.9,52,757.9,51.3z M759.5,51.3
	c0,0.4,0.1,0.8,0.2,1.1c0.2,0.4,0.4,0.7,0.6,0.9c0.3,0.3,0.6,0.5,0.9,0.6c0.4,0.2,0.7,0.2,1.1,0.2c0.4,0,0.8-0.1,1.1-0.2
	s0.7-0.4,0.9-0.6c0.3-0.3,0.5-0.6,0.6-0.9c0.2-0.4,0.2-0.7,0.2-1.1c0-0.4-0.1-0.8-0.2-1.1c-0.2-0.4-0.4-0.7-0.6-0.9
	c-0.3-0.3-0.6-0.5-0.9-0.6s-0.7-0.2-1.1-0.2c-0.4,0-0.8,0.1-1.1,0.2c-0.4,0.2-0.7,0.4-0.9,0.6c-0.3,0.3-0.5,0.6-0.6,0.9
	C759.6,50.5,759.5,50.9,759.5,51.3z"/>
<path d="M770.3,46.9l0.1,0.2l0.1,0.2c0,0.1,0,0.2,0,0.3V48c0.1-0.2,0.2-0.4,0.4-0.5c0.2-0.2,0.4-0.3,0.6-0.4
	c0.2-0.1,0.5-0.2,0.7-0.2c0.3-0.1,0.5-0.1,0.8-0.1c0.5,0,1,0.1,1.4,0.3s0.8,0.4,1.1,0.8c0.3,0.3,0.5,0.8,0.7,1.2
	c0.2,0.5,0.2,1.1,0.2,1.7v5.1h-1.7v-5.1c0-0.7-0.1-1.3-0.4-1.7c-0.3-0.4-0.7-0.6-1.3-0.6c-0.3,0-0.7,0-1,0.1s-0.6,0.2-0.8,0.3
	s-0.4,0.3-0.6,0.5c-0.1,0.2-0.2,0.4-0.2,0.6v6h-1.7v-8.9h1.6V46.9z"/>
<path d="M778.6,53.9c0.1-0.1,0.2-0.1,0.3-0.1s0.2-0.1,0.3-0.1s0.3,0,0.4,0.1s0.3,0.2,0.5,0.3c0.1,0.1,0.3,0.2,0.4,0.2
	c0.2,0,0.3,0.1,0.5,0.1s0.4,0,0.5-0.1c0.2-0.1,0.3-0.1,0.5-0.2c0.1-0.1,0.2-0.2,0.3-0.4s0.1-0.3,0.1-0.5s0-0.3-0.1-0.4
	c0-0.1-0.1-0.2-0.3-0.3c-0.1-0.1-0.3-0.2-0.5-0.3s-0.5-0.2-0.8-0.3s-0.6-0.2-0.9-0.4c-0.3-0.1-0.6-0.3-0.8-0.5s-0.4-0.4-0.6-0.7
	c-0.1-0.3-0.2-0.6-0.2-1c0-0.3,0.1-0.7,0.2-1c0.2-0.3,0.4-0.6,0.6-0.8c0.3-0.2,0.6-0.4,0.9-0.5c0.3-0.1,0.7-0.2,1-0.2
	s0.7,0.1,0.9,0.2c0.3,0.1,0.5,0.3,0.7,0.4c0.2,0.2,0.4,0.3,0.5,0.5c0.1,0.1,0.2,0.2,0.2,0.3l-0.4,0.3c-0.2,0.2-0.5,0.3-0.8,0.3
	c-0.1,0-0.2,0-0.4-0.1c-0.1,0-0.3-0.1-0.4-0.2c-0.1-0.1-0.2-0.1-0.4-0.1s-0.4,0-0.5,0.1s-0.3,0.1-0.3,0.2c-0.1,0.1-0.1,0.2-0.2,0.3
	c0,0.1-0.1,0.2-0.1,0.2c0,0.2,0,0.3,0.1,0.4c0.1,0.1,0.2,0.2,0.3,0.3s0.3,0.2,0.5,0.2c0.2,0.1,0.3,0.1,0.5,0.2
	c0.3,0.1,0.7,0.2,1,0.4c0.3,0.1,0.6,0.3,0.8,0.5s0.4,0.5,0.6,0.8c0.1,0.3,0.2,0.7,0.2,1.1c0,0.4-0.1,0.7-0.2,1.1
	c-0.2,0.3-0.4,0.6-0.6,0.9c-0.3,0.3-0.6,0.5-1,0.6c-0.4,0.2-0.8,0.2-1.2,0.2c-0.3,0-0.6,0-0.9-0.1c-0.3-0.1-0.6-0.2-0.8-0.4
	c-0.3-0.2-0.5-0.3-0.7-0.6c-0.2-0.2-0.4-0.5-0.5-0.8L778.6,53.9z"/>
<path d="M785.9,44.6c0-0.2,0-0.3,0.1-0.4s0.1-0.3,0.2-0.4c0.1-0.1,0.2-0.2,0.4-0.2c0.1-0.1,0.3-0.1,0.4-0.1c0.2,0,0.3,0,0.4,0.1
	c0.1,0.1,0.3,0.1,0.4,0.2c0.1,0.1,0.2,0.2,0.2,0.4s0.1,0.3,0.1,0.4c0,0.2,0,0.3-0.1,0.4c-0.1,0.1-0.1,0.3-0.2,0.4
	c-0.1,0.1-0.2,0.2-0.4,0.2c-0.1,0.1-0.3,0.1-0.4,0.1c-0.2,0-0.3,0-0.4-0.1c-0.1-0.1-0.3-0.1-0.4-0.2c-0.1-0.1-0.2-0.2-0.2-0.4
	C786,44.9,785.9,44.8,785.9,44.6z M787.9,46.9v8.9h-1.7v-8.9H787.9z"/>
<path d="M789,46.9h1c0.3,0,0.5,0.1,0.7,0.2s0.4,0.3,0.5,0.6l2.4,5.5c0,0.1,0.1,0.2,0.1,0.4c0,0.1,0,0.3,0.1,0.4
	c0-0.3,0.1-0.5,0.2-0.8l2.4-5.5c0.1-0.2,0.3-0.4,0.5-0.6c0.2-0.1,0.5-0.2,0.7-0.2h1l-3.9,8.9h-1.6L789,46.9z"/>
<path d="M807.6,50.6c0,0.2,0,0.4-0.1,0.5c-0.1,0.2-0.2,0.3-0.3,0.4c-0.1,0.1-0.2,0.2-0.4,0.3c-0.1,0.1-0.3,0.1-0.4,0.1h-6.2
	c0.1,0.3,0.2,0.7,0.3,1c0.2,0.3,0.4,0.6,0.7,0.8s0.6,0.4,0.9,0.5c0.3,0.1,0.7,0.2,1,0.2s0.5,0,0.8-0.1c0.2-0.1,0.5-0.2,0.7-0.3
	c0.1-0.1,0.2-0.1,0.3-0.1s0.2,0,0.4,0s0.3,0,0.5,0.1c0.1,0.1,0.3,0.2,0.4,0.3l0.3,0.3c-0.4,0.5-0.9,0.8-1.5,1.1s-1.2,0.4-1.9,0.4
	c-0.6,0-1.2-0.1-1.8-0.4s-1-0.6-1.5-1c-0.4-0.4-0.7-0.9-1-1.5c-0.2-0.6-0.4-1.2-0.4-1.8s0.1-1.2,0.4-1.8c0.2-0.6,0.6-1,1-1.5
	c0.4-0.4,0.9-0.7,1.5-1c0.6-0.2,1.2-0.4,1.8-0.4c0.5,0,1,0.1,1.5,0.3s0.9,0.4,1.3,0.7c0.4,0.3,0.7,0.7,1,1.1s0.5,0.9,0.6,1.4v0.2
	L807.6,50.6z M800.8,50.2h5c-0.1-0.3-0.3-0.5-0.4-0.7c-0.2-0.2-0.4-0.4-0.6-0.6c-0.2-0.2-0.5-0.3-0.8-0.4c-0.3-0.1-0.6-0.1-0.9-0.1
	c-0.3,0-0.7,0.1-1,0.2c-0.3,0.1-0.6,0.3-0.8,0.4c-0.2,0.2-0.5,0.4-0.6,0.7c-0.2,0.3-0.3,0.5-0.4,0.8c0-0.1,0.1-0.1,0.2-0.2
	C800.6,50.2,800.7,50.2,800.8,50.2z"/>
<path d="M738.1,76.2V64h4.6c0.6,0,1.1,0.1,1.6,0.2s1,0.4,1.5,0.6c0.5,0.3,0.9,0.6,1.2,1c0.4,0.4,0.7,0.8,1,1.2
	c0.3,0.5,0.5,0.9,0.6,1.5c0.1,0.5,0.2,1.1,0.2,1.6c0,0.6-0.1,1.1-0.2,1.6c-0.1,0.5-0.4,1-0.6,1.5c-0.3,0.5-0.6,0.9-1,1.2
	c-0.4,0.4-0.8,0.7-1.2,1c-0.5,0.3-0.9,0.5-1.5,0.6c-0.5,0.1-1.1,0.2-1.6,0.2L738.1,76.2L738.1,76.2z M742.7,74.5
	c0.6,0,1.2-0.1,1.7-0.3c0.5-0.2,1-0.5,1.4-0.9s0.7-0.9,0.9-1.4s0.3-1.1,0.3-1.7s-0.1-1.2-0.3-1.7s-0.5-1-0.9-1.4s-0.9-0.7-1.4-0.9
	c-0.5-0.2-1.1-0.3-1.7-0.3h-2.9v8.8h2.9V74.5z"/>
<path d="M759.2,71c0,0.2,0,0.4-0.1,0.5c-0.1,0.2-0.2,0.3-0.3,0.4s-0.2,0.2-0.4,0.3c-0.1,0.1-0.3,0.1-0.4,0.1h-6.2
	c0.1,0.3,0.2,0.7,0.3,1c0.2,0.3,0.4,0.6,0.7,0.8s0.6,0.4,0.9,0.5c0.3,0.1,0.7,0.2,1,0.2s0.5,0,0.8-0.1s0.5-0.2,0.7-0.3
	c0.1-0.1,0.2-0.1,0.3-0.1s0.2,0,0.4,0s0.3,0,0.5,0.1c0.1,0.1,0.3,0.2,0.4,0.3l0.3,0.3c-0.4,0.5-0.9,0.8-1.5,1.1
	c-0.6,0.3-1.2,0.4-1.9,0.4c-0.6,0-1.2-0.1-1.8-0.4c-0.6-0.2-1-0.6-1.5-1c-0.4-0.4-0.7-0.9-1-1.5c-0.2-0.6-0.4-1.2-0.4-1.8
	c0-0.6,0.1-1.2,0.4-1.8c0.2-0.6,0.6-1,1-1.5c0.4-0.4,0.9-0.7,1.5-1c0.6-0.2,1.2-0.4,1.8-0.4c0.5,0,1,0.1,1.5,0.3
	c0.5,0.2,0.9,0.4,1.3,0.7s0.7,0.7,1,1.1s0.5,0.9,0.6,1.4v0.2L759.2,71z M752.5,70.6h5c-0.1-0.3-0.3-0.5-0.4-0.7
	c-0.2-0.2-0.4-0.4-0.6-0.6c-0.2-0.2-0.5-0.3-0.8-0.4s-0.6-0.1-0.9-0.1c-0.3,0-0.7,0.1-1,0.2s-0.6,0.3-0.8,0.4
	c-0.2,0.2-0.5,0.4-0.6,0.7c-0.2,0.3-0.3,0.5-0.4,0.8c0-0.1,0.1-0.1,0.2-0.2C752.2,70.6,752.3,70.6,752.5,70.6z"/>
<path d="M760.8,74.3c0.1-0.1,0.2-0.1,0.3-0.1s0.2-0.1,0.3-0.1s0.3,0,0.4,0.1s0.3,0.2,0.5,0.3c0.1,0.1,0.3,0.2,0.4,0.2
	c0.2,0,0.3,0.1,0.5,0.1s0.4,0,0.5-0.1c0.2-0.1,0.3-0.1,0.5-0.2c0.1-0.1,0.2-0.2,0.3-0.4c0.1-0.2,0.1-0.3,0.1-0.5s0-0.3-0.1-0.4
	c0-0.1-0.1-0.2-0.3-0.3s-0.3-0.2-0.5-0.3c-0.2-0.1-0.5-0.2-0.8-0.3c-0.3-0.1-0.6-0.2-0.9-0.4c-0.3-0.1-0.6-0.3-0.8-0.5
	s-0.4-0.4-0.6-0.7c-0.1-0.3-0.2-0.6-0.2-1c0-0.3,0.1-0.7,0.2-1c0.2-0.3,0.4-0.6,0.6-0.8c0.3-0.2,0.6-0.4,0.9-0.5s0.7-0.2,1-0.2
	s0.7,0.1,0.9,0.2s0.5,0.3,0.7,0.4c0.2,0.2,0.4,0.3,0.5,0.5c0.1,0.1,0.2,0.2,0.2,0.3l-0.4,0.3c-0.2,0.2-0.5,0.3-0.8,0.3
	c-0.1,0-0.2,0-0.4-0.1c-0.1,0-0.3-0.1-0.4-0.2c-0.1-0.1-0.2-0.1-0.4-0.1s-0.4,0-0.5,0.1s-0.3,0.1-0.3,0.2c-0.1,0.1-0.1,0.2-0.2,0.3
	c0,0.1-0.1,0.2-0.1,0.2c0,0.2,0,0.3,0.1,0.4s0.2,0.2,0.3,0.3c0.1,0.1,0.3,0.2,0.5,0.2c0.2,0.1,0.3,0.1,0.5,0.2
	c0.3,0.1,0.7,0.2,1,0.4c0.3,0.1,0.6,0.3,0.8,0.5s0.4,0.5,0.6,0.8c0.1,0.3,0.2,0.7,0.2,1.1s-0.1,0.8-0.2,1.1
	c-0.2,0.3-0.4,0.6-0.6,0.9s-0.6,0.5-1,0.6c-0.4,0.2-0.8,0.2-1.2,0.2c-0.3,0-0.6,0-0.9-0.1c-0.3-0.1-0.6-0.2-0.8-0.4
	c-0.3-0.2-0.5-0.3-0.7-0.6c-0.2-0.2-0.4-0.5-0.5-0.8L760.8,74.3z"/>
<path d="M768.2,65c0-0.2,0-0.3,0.1-0.4s0.1-0.3,0.2-0.4s0.2-0.2,0.4-0.2c0.1-0.1,0.3-0.1,0.4-0.1c0.2,0,0.3,0,0.4,0.1
	c0.1,0.1,0.3,0.1,0.4,0.2s0.2,0.2,0.2,0.4c0.1,0.1,0.1,0.3,0.1,0.4c0,0.2,0,0.3-0.1,0.4s-0.1,0.3-0.2,0.4c-0.1,0.1-0.2,0.2-0.4,0.2
	c-0.1,0.1-0.3,0.1-0.4,0.1c-0.2,0-0.3,0-0.4-0.1c-0.1-0.1-0.3-0.1-0.4-0.2c-0.1-0.1-0.2-0.2-0.2-0.4S768.2,65.2,768.2,65z
	 M770.2,67.3v8.9h-1.7v-8.9H770.2z"/>
<path d="M780.1,68.4c-0.1,0.2-0.2,0.4-0.4,0.5s-0.5,0.2-0.8,0.2c0.1,0.2,0.2,0.4,0.2,0.7c0.1,0.2,0.1,0.5,0.1,0.7
	c0,0.5-0.1,0.9-0.3,1.3s-0.4,0.8-0.7,1.1c-0.3,0.3-0.7,0.5-1.1,0.7c-0.4,0.2-0.8,0.3-1.3,0.3s-1-0.1-1.5-0.3
	c-0.2,0.1-0.3,0.3-0.4,0.3l-0.1,0.2v0.1l0,0c0,0.1,0.1,0.1,0.3,0.1c0.1,0,0.3,0.1,0.5,0.1s0.4,0,0.6,0c0.2,0,0.4,0,0.6,0
	c0.4,0,0.8,0,1.2,0.1c0.4,0,0.8,0.1,1.1,0.2c0.5,0.2,0.8,0.4,1.1,0.8c0.2,0.3,0.4,0.7,0.4,1.2c0,0.4-0.1,0.7-0.2,1
	c-0.1,0.3-0.3,0.5-0.6,0.8c-0.3,0.2-0.6,0.4-1,0.5s-0.8,0.2-1.3,0.2c-0.4,0-0.8,0-1.2-0.1s-0.8-0.1-1.1-0.2c-0.4-0.1-0.7-0.2-1-0.3
	s-0.6-0.2-0.9-0.4l0.2-0.6c0.1-0.2,0.2-0.4,0.4-0.5s0.4-0.2,0.7-0.2c0.1,0,0.3,0,0.4,0.1c0.1,0,0.3,0.1,0.4,0.1
	c0.1,0,0.1,0.1,0.3,0.1c0.1,0,0.3,0.1,0.5,0.1c0.2,0.1,0.4,0.1,0.6,0.1c0.2,0,0.5,0.1,0.8,0.1c0.1,0,0.3,0,0.5,0s0.3-0.1,0.5-0.1
	c0.2-0.1,0.3-0.1,0.4-0.3c0.1-0.1,0.2-0.2,0.2-0.4c0-0.1,0-0.2-0.1-0.3c0-0.1-0.1-0.1-0.3-0.2s-0.5-0.1-0.8-0.2
	c-0.3,0-0.6,0-0.9-0.1c-0.3,0-0.6,0-1,0c-0.3,0-0.6-0.1-0.9-0.1c-0.3-0.1-0.6-0.2-0.8-0.3c-0.2-0.1-0.4-0.3-0.6-0.6
	c-0.1-0.2-0.2-0.4-0.2-0.6s0.1-0.5,0.3-0.8s0.5-0.5,0.9-0.7c-0.3-0.3-0.6-0.7-0.8-1.1s-0.3-0.9-0.3-1.4s0.1-0.9,0.3-1.3
	s0.4-0.8,0.7-1.1c0.3-0.3,0.7-0.5,1.1-0.7c0.4-0.2,0.8-0.3,1.3-0.3c0.4,0,0.7,0.1,1,0.2s0.6,0.3,0.9,0.5c0.1-0.1,0.3-0.1,0.4-0.2
	c0.2-0.1,0.4-0.1,0.7-0.1c0.2,0,0.4,0,0.6,0.1c0.2,0,0.5,0.1,0.8,0.2L780.1,68.4z M774.1,70.5c0,0.2,0,0.5,0.1,0.7s0.2,0.4,0.4,0.5
	c0.2,0.2,0.3,0.3,0.5,0.4s0.4,0.1,0.7,0.1c0.2,0,0.5,0,0.7-0.1s0.4-0.2,0.5-0.4c0.2-0.2,0.3-0.3,0.4-0.5c0.1-0.2,0.1-0.4,0.1-0.7
	c0-0.2,0-0.5-0.1-0.7s-0.2-0.4-0.4-0.5c-0.2-0.2-0.3-0.3-0.5-0.4s-0.4-0.1-0.7-0.1c-0.2,0-0.5,0-0.7,0.1s-0.4,0.2-0.5,0.4
	c-0.2,0.2-0.3,0.3-0.4,0.5C774.1,70,774.1,70.2,774.1,70.5z"/>
<path d="M783.1,67.3l0.1,0.2l0.1,0.2c0,0.1,0,0.2,0,0.3v0.4c0.1-0.2,0.2-0.4,0.4-0.5c0.2-0.2,0.4-0.3,0.6-0.4
	c0.2-0.1,0.5-0.2,0.7-0.2c0.3-0.1,0.5-0.1,0.8-0.1c0.5,0,1,0.1,1.4,0.3c0.4,0.2,0.8,0.4,1.1,0.8s0.5,0.8,0.7,1.3s0.2,1.1,0.2,1.7
	v5.1h-1.7v-5.1c0-0.7-0.1-1.3-0.4-1.7c-0.3-0.4-0.7-0.6-1.3-0.6c-0.3,0-0.7,0-1,0.1s-0.6,0.2-0.8,0.3c-0.2,0.1-0.4,0.3-0.6,0.5
	c-0.1,0.2-0.2,0.4-0.2,0.6v6h-1.7v-8.9h1.6V67.3z"/>
<path d="M930.4,49.9h1.8v11c0,0.6-0.1,1.1-0.3,1.6s-0.5,0.9-0.9,1.3s-0.8,0.7-1.3,0.9s-1,0.3-1.6,0.3s-1.1-0.1-1.6-0.3
	c-0.5-0.2-0.9-0.5-1.3-0.9l0.5-0.5c0.3-0.3,0.6-0.4,1-0.4c0.1,0,0.2,0,0.3,0.1s0.2,0.1,0.3,0.1s0.2,0.1,0.3,0.1s0.2,0,0.4,0
	c0.3,0,0.6-0.1,0.9-0.2c0.3-0.1,0.5-0.3,0.8-0.5c0.2-0.2,0.4-0.5,0.5-0.7c0.1-0.3,0.2-0.6,0.2-0.9L930.4,49.9L930.4,49.9z"/>
<path d="M935.4,54.7l0.2-0.3c0.1-0.1,0.2-0.2,0.3-0.3s0.2-0.2,0.4-0.3c0.4-0.2,0.7-0.4,1.2-0.5s0.9-0.2,1.4-0.2s1,0.1,1.4,0.2
	c0.4,0.1,0.7,0.3,1,0.5s0.5,0.5,0.7,0.8s0.3,0.6,0.4,1c0.1,0.4,0.2,0.7,0.2,1.1c0,0.4,0.1,0.8,0.1,1.2v4.7H941
	c-0.1-0.1-0.1-0.2-0.2-0.3c-0.1-0.1-0.1-0.3-0.1-0.4v-0.2c-0.2,0.2-0.4,0.3-0.6,0.5c-0.2,0.1-0.5,0.3-0.7,0.4
	c-0.3,0.1-0.5,0.2-0.8,0.2s-0.5,0.1-0.7,0.1c-0.5,0-0.9-0.1-1.3-0.2s-0.7-0.3-1-0.6c-0.3-0.2-0.5-0.5-0.6-0.9
	c-0.2-0.4-0.2-0.7-0.2-1.2s0.1-0.9,0.3-1.3c0.2-0.4,0.4-0.7,0.8-1c0.4-0.3,0.8-0.5,1.4-0.6s1.2-0.2,1.9-0.2c0.2,0,0.4,0,0.6,0
	c0.2,0,0.4,0,0.5,0s0.3,0,0.4,0s0.2,0,0.2,0c0-0.4-0.1-0.8-0.2-1.1c-0.1-0.3-0.3-0.5-0.4-0.7c-0.2-0.2-0.4-0.3-0.6-0.3
	c-0.2-0.1-0.5-0.1-0.7-0.1c-0.3,0-0.5,0-0.7,0.1s-0.3,0.1-0.4,0.2s-0.3,0.1-0.4,0.2c-0.1,0.1-0.3,0.1-0.5,0.1s-0.3,0-0.5-0.1
	c-0.1-0.1-0.3-0.1-0.4-0.2L935.4,54.7z M937.9,61.2c0.2,0,0.4,0,0.7-0.1c0.2,0,0.5-0.1,0.7-0.2s0.5-0.2,0.7-0.3s0.5-0.2,0.7-0.4
	v-1.6c0,0-0.1,0-0.2,0s-0.2,0-0.4,0s-0.3,0-0.5,0s-0.4,0-0.6,0c-0.4,0-0.7,0-1,0.1c-0.3,0-0.6,0.1-0.8,0.2c-0.2,0.1-0.4,0.2-0.6,0.4
	c-0.1,0.2-0.2,0.4-0.2,0.6c0,0.2,0,0.4,0.1,0.5s0.2,0.3,0.3,0.4c0.1,0.1,0.3,0.2,0.5,0.2C937.5,61.2,937.7,61.2,937.9,61.2z"/>
<path d="M943,53.3h1c0.3,0,0.5,0.1,0.8,0.2c0.2,0.1,0.4,0.4,0.5,0.6l2.5,5.8c0,0.1,0.1,0.2,0.1,0.4c0,0.1,0,0.3,0.1,0.4
	c0-0.3,0.1-0.6,0.2-0.8l2.5-5.8c0.1-0.3,0.3-0.5,0.5-0.6s0.5-0.2,0.8-0.2h1l-4.1,9.5h-1.7L943,53.3z"/>
<path d="M954.2,54.7l0.2-0.3c0.1-0.1,0.2-0.2,0.3-0.3s0.2-0.2,0.4-0.3c0.4-0.2,0.7-0.4,1.2-0.5s0.9-0.2,1.4-0.2s1,0.1,1.4,0.2
	c0.4,0.1,0.7,0.3,1,0.5s0.5,0.5,0.7,0.8s0.3,0.6,0.4,1c0.1,0.4,0.2,0.7,0.2,1.1c0,0.4,0.1,0.8,0.1,1.2v4.7H960
	c-0.1-0.1-0.1-0.2-0.2-0.3c-0.1-0.1-0.1-0.3-0.1-0.4v-0.2c-0.2,0.2-0.4,0.3-0.6,0.5c-0.2,0.1-0.5,0.3-0.7,0.4
	c-0.3,0.1-0.5,0.2-0.8,0.2s-0.5,0.1-0.7,0.1c-0.5,0-0.9-0.1-1.3-0.2s-0.7-0.3-1-0.6c-0.3-0.2-0.5-0.5-0.6-0.9
	c-0.2-0.4-0.2-0.7-0.2-1.2s0.1-0.9,0.3-1.3c0.2-0.4,0.4-0.7,0.8-1c0.4-0.3,0.8-0.5,1.4-0.6s1.2-0.2,1.9-0.2c0.2,0,0.4,0,0.6,0
	c0.2,0,0.4,0,0.5,0s0.3,0,0.4,0s0.2,0,0.2,0c0-0.4-0.1-0.8-0.2-1.1c-0.1-0.3-0.3-0.5-0.4-0.7c-0.2-0.2-0.4-0.3-0.6-0.3
	c-0.2-0.1-0.5-0.1-0.7-0.1c-0.3,0-0.5,0-0.7,0.1s-0.3,0.1-0.4,0.2s-0.3,0.1-0.4,0.2c-0.1,0.1-0.3,0.1-0.5,0.1s-0.3,0-0.5-0.1
	c-0.1-0.1-0.3-0.1-0.4-0.2L954.2,54.7z M956.7,61.2c0.2,0,0.4,0,0.7-0.1c0.2,0,0.5-0.1,0.7-0.2s0.5-0.2,0.7-0.3s0.5-0.2,0.7-0.4
	v-1.6c0,0-0.1,0-0.2,0s-0.2,0-0.4,0s-0.3,0-0.5,0s-0.4,0-0.6,0c-0.4,0-0.7,0-1,0.1c-0.3,0-0.6,0.1-0.8,0.2c-0.2,0.1-0.4,0.2-0.6,0.4
	c-0.1,0.2-0.2,0.4-0.2,0.6c0,0.2,0,0.4,0.1,0.5s0.2,0.3,0.3,0.4c0.1,0.1,0.3,0.2,0.5,0.2C956.4,61.2,956.5,61.2,956.7,61.2z"/>
<path d="M968.7,52c-0.2-0.2-0.5-0.3-0.7-0.4c-0.2-0.1-0.5-0.1-0.7-0.1c-0.3,0-0.5,0-0.8,0.1c-0.2,0.1-0.5,0.2-0.7,0.3
	s-0.3,0.3-0.4,0.5c-0.1,0.2-0.2,0.4-0.2,0.6c0,0.3,0,0.5,0.1,0.7s0.2,0.3,0.4,0.5s0.4,0.3,0.7,0.4s0.7,0.3,1.1,0.4
	c0.2,0.1,0.4,0.2,0.6,0.2c0.2,0.1,0.4,0.2,0.6,0.2c0.2,0.1,0.4,0.2,0.6,0.3c0.2,0.1,0.4,0.2,0.6,0.4c0.9,0.7,1.4,1.6,1.4,2.8
	c0,0.6-0.1,1.1-0.4,1.6c-0.2,0.5-0.6,0.9-1,1.3c-0.4,0.4-0.9,0.6-1.4,0.8s-1.1,0.3-1.7,0.3c-1.2,0-2.1-0.3-2.9-1
	c-0.2-0.1-0.3-0.3-0.4-0.4c-0.1-0.1-0.2-0.3-0.3-0.4s-0.2-0.3-0.2-0.4c-0.1-0.1-0.1-0.2-0.1-0.3l0.4-0.2c0.2-0.1,0.5-0.2,0.7-0.2
	c0.4,0,0.7,0.1,1,0.4l0.1,0.1c0.2,0.2,0.5,0.3,0.8,0.4c0.3,0.1,0.6,0.2,1,0.2c0.3,0,0.6,0,0.9-0.1c0.3-0.1,0.6-0.2,0.9-0.4
	c0.3-0.2,0.5-0.4,0.6-0.7c0.2-0.3,0.2-0.6,0.2-0.9c0-0.3-0.1-0.6-0.2-0.9c-0.2-0.2-0.4-0.4-0.6-0.6s-0.5-0.3-0.8-0.4
	c-0.3-0.1-0.6-0.2-0.9-0.4c-0.4-0.2-0.9-0.4-1.3-0.5c-0.4-0.2-0.8-0.4-1.1-0.7s-0.6-0.6-0.8-1s-0.3-0.9-0.3-1.4s0.1-1,0.3-1.4
	s0.5-0.8,0.9-1c0.4-0.3,0.8-0.5,1.2-0.7c0.5-0.1,0.9-0.2,1.4-0.2c0.4,0,0.7,0.1,1.1,0.2c0.3,0.1,0.7,0.3,1,0.5s0.6,0.4,0.8,0.6
	c0.2,0.2,0.5,0.4,0.6,0.6l-0.5,0.3c-0.3,0.2-0.5,0.3-0.9,0.3C969.2,52.3,968.9,52.2,968.7,52z"/>
<path d="M977.5,54.9c-0.4,0-0.8,0.1-1.2,0.2s-0.7,0.4-1,0.7s-0.5,0.6-0.7,1s-0.2,0.8-0.2,1.2s0.1,0.8,0.2,1.2s0.4,0.7,0.7,1
	s0.6,0.5,1,0.7s0.8,0.2,1.2,0.2c0.3,0,0.5,0,0.8-0.1s0.5-0.2,0.7-0.3s0.5-0.2,0.7-0.2s0.4,0,0.5,0.1c0.2,0.1,0.3,0.2,0.4,0.3
	l0.3,0.3c-0.5,0.5-1,0.9-1.6,1.1s-1.3,0.4-2,0.4s-1.3-0.1-1.9-0.4c-0.6-0.3-1.1-0.6-1.5-1s-0.8-1-1-1.5s-0.4-1.2-0.4-1.9
	s0.1-1.3,0.4-1.9s0.6-1.1,1-1.5s1-0.8,1.5-1c0.6-0.3,1.2-0.4,1.9-0.4s1.4,0.1,2,0.4s1.1,0.7,1.6,1.1l-0.3,0.3
	c-0.1,0.1-0.3,0.3-0.5,0.3c-0.2,0.1-0.3,0.1-0.6,0.1c-0.2,0-0.5-0.1-0.7-0.2c-0.2-0.1-0.5-0.2-0.7-0.3
	C978.1,54.9,977.8,54.9,977.5,54.9z"/>
<path d="M984.1,53.3l0.1,0.2c0,0.1,0.1,0.1,0.1,0.2c0,0.1,0,0.2,0,0.3v0.7c0.1-0.2,0.3-0.4,0.4-0.6c0.2-0.2,0.4-0.3,0.6-0.5
	c0.2-0.1,0.5-0.3,0.8-0.3c0.3-0.1,0.6-0.1,0.9-0.1c0.5,0,0.9,0.1,1.4,0.3l-0.1,0.8c0,0.3-0.2,0.4-0.3,0.6c-0.2,0.1-0.4,0.2-0.6,0.2
	h-0.1l0,0h-0.1H987c-0.4,0-0.7,0.1-1,0.2c-0.3,0.1-0.6,0.2-0.8,0.4s-0.4,0.4-0.6,0.6c-0.2,0.2-0.2,0.4-0.3,0.6v6h-1.8v-9.5h1.6V53.3
	z"/>
<path d="M989.4,50.9c0-0.2,0-0.3,0.1-0.5c0.1-0.1,0.1-0.3,0.3-0.4c0.1-0.1,0.2-0.2,0.4-0.3c0.1-0.1,0.3-0.1,0.5-0.1s0.3,0,0.5,0.1
	c0.1,0.1,0.3,0.1,0.4,0.3c0.1,0.1,0.2,0.2,0.3,0.4c0.1,0.1,0.1,0.3,0.1,0.5s0,0.3-0.1,0.5c-0.1,0.1-0.2,0.3-0.3,0.4
	c-0.1,0.1-0.2,0.2-0.4,0.3c-0.1,0.1-0.3,0.1-0.5,0.1s-0.3,0-0.5-0.1c-0.1-0.1-0.3-0.1-0.4-0.3c-0.1-0.1-0.2-0.2-0.3-0.4
	C989.5,51.2,989.4,51.1,989.4,50.9z M991.5,53.3v9.5h-1.8v-9.5H991.5z"/>
<path d="M995.9,53.3l0.1,0.2c0,0.1,0.1,0.1,0.1,0.2c0,0.1,0,0.2,0,0.3v0.4c0-0.2,0.1-0.3,0.2-0.4c0.1-0.1,0.2-0.2,0.4-0.3
	c0.1-0.1,0.3-0.2,0.5-0.2c0.2-0.1,0.4-0.1,0.5-0.2c0.2,0,0.3-0.1,0.5-0.1s0.3,0,0.4,0c0.7,0,1.3,0.1,1.9,0.4c0.6,0.3,1.1,0.6,1.5,1
	s0.7,1,1,1.5c0.2,0.6,0.4,1.2,0.4,1.9s-0.1,1.3-0.4,1.9c-0.2,0.6-0.6,1.1-1,1.5s-0.9,0.8-1.5,1s-1.2,0.4-1.9,0.4c-0.2,0-0.4,0-0.6,0
	c-0.2,0-0.4-0.1-0.6-0.2c-0.2-0.1-0.4-0.2-0.6-0.3s-0.4-0.3-0.6-0.5v3.9h-1.8V53.3H995.9z M998.6,61.1c0.4,0,0.8-0.1,1.2-0.2
	s0.7-0.4,0.9-0.7c0.3-0.3,0.5-0.6,0.6-1s0.2-0.8,0.2-1.2s-0.1-0.8-0.2-1.2s-0.3-0.7-0.6-1s-0.6-0.5-0.9-0.7s-0.8-0.2-1.2-0.2
	c-0.5,0-0.9,0.1-1.3,0.3c-0.4,0.2-0.8,0.4-1.1,0.8v4.2c0.3,0.3,0.7,0.6,1.1,0.8C997.7,61.1,998.2,61.1,998.6,61.1z"/>
<path d="M1007.3,60.4c0,0.1,0,0.2,0,0.3s0.1,0.2,0.1,0.3l0.2,0.2c0.1,0.1,0.2,0.1,0.3,0.1h0.2c0.3-0.1,0.5-0.1,0.7-0.1
	s0.5,0.1,0.6,0.2c0.2,0.1,0.3,0.3,0.5,0.5l0.2,0.3c-0.1,0.1-0.3,0.2-0.4,0.3c-0.2,0.1-0.4,0.2-0.6,0.3c-0.2,0.1-0.4,0.1-0.6,0.2
	s-0.4,0.1-0.6,0.1c-0.4,0-0.7-0.1-1-0.2c-0.3-0.1-0.6-0.3-0.8-0.5s-0.4-0.5-0.5-0.8s-0.2-0.6-0.2-1V55h-1.4v-1
	c0-0.5,0.5-0.7,1.4-0.7h0.2v-1.9c0-0.2,0-0.4,0.1-0.5c0-0.2,0.1-0.3,0.1-0.4c0.1-0.1,0.1-0.3,0.2-0.4h1.4v3.3h2.6V55h-2.6v5.4
	H1007.3z"/>
<path d="M1142.3,63.9c0,0.5-0.1,1-0.2,1.5c-0.2,0.5-0.4,0.9-0.6,1.3c-0.3,0.4-0.6,0.7-0.9,1c-0.4,0.3-0.7,0.5-1.2,0.7l-0.3-0.7
	c0-0.1-0.1-0.2-0.1-0.3c0-0.1,0-0.2,0-0.3c0-0.2,0-0.4,0.1-0.6s0.2-0.3,0.3-0.5c0.1-0.1,0.2-0.3,0.4-0.5c0.1-0.2,0.2-0.3,0.3-0.5
	c0.1-0.3,0.2-0.7,0.2-1V53.2h2.1v10.7H1142.3z M1139.9,50.4c0-0.2,0-0.4,0.1-0.6c0.1-0.2,0.2-0.3,0.3-0.5c0.1-0.1,0.3-0.2,0.5-0.3
	s0.4-0.1,0.6-0.1s0.4,0,0.6,0.1s0.3,0.2,0.5,0.3c0.1,0.1,0.2,0.3,0.3,0.5c0.1,0.2,0.1,0.4,0.1,0.6c0,0.2,0,0.4-0.1,0.6
	c-0.1,0.2-0.2,0.3-0.3,0.5c-0.1,0.1-0.3,0.2-0.5,0.3s-0.4,0.1-0.6,0.1s-0.4,0-0.6-0.1s-0.3-0.2-0.5-0.3c-0.1-0.1-0.2-0.3-0.3-0.5
	C1139.9,50.8,1139.9,50.6,1139.9,50.4z"/>
<path d="M1147.1,56.7c0,0.8,0.1,1.5,0.4,2.2s0.7,1.3,1.2,1.8s1.1,0.9,1.8,1.2c0.7,0.3,1.4,0.4,2.2,0.4c0.3,0,0.6,0,0.9-0.1
	c0.3,0,0.6-0.1,0.8-0.2l1.3,1.7c-0.5,0.2-0.9,0.3-1.4,0.4s-1,0.2-1.5,0.2c-1.1,0-2.1-0.2-3-0.6s-1.7-1-2.4-1.6
	c-0.7-0.7-1.2-1.5-1.6-2.4s-0.6-1.9-0.6-3c0-0.7,0.1-1.4,0.3-2c0.2-0.7,0.4-1.3,0.8-1.8c0.3-0.6,0.7-1.1,1.2-1.6s1-0.9,1.6-1.2
	s1.2-0.6,1.8-0.8c0.7-0.2,1.3-0.3,2-0.3s1.4,0.1,2,0.3c0.7,0.2,1.3,0.4,1.8,0.8c0.6,0.3,1.1,0.7,1.6,1.2s0.9,1,1.2,1.6
	c0.3,0.6,0.6,1.2,0.8,1.8c0.2,0.7,0.3,1.3,0.3,2c0,1-0.2,2-0.6,2.9s-0.9,1.7-1.6,2.4l4,5.4h-1.4c-0.4,0-0.8-0.1-1.1-0.2
	s-0.6-0.4-0.8-0.7l-3.6-4.9c0.4-0.2,0.8-0.5,1.2-0.9c0.4-0.3,0.7-0.7,0.9-1.2c0.3-0.4,0.5-0.9,0.6-1.4s0.2-1,0.2-1.5
	c0-0.8-0.1-1.5-0.4-2.2s-0.7-1.3-1.2-1.8s-1.1-0.9-1.8-1.2c-0.7-0.3-1.4-0.4-2.2-0.4c-0.8,0-1.5,0.1-2.2,0.4
	c-0.7,0.3-1.3,0.7-1.8,1.2s-0.9,1.1-1.2,1.8S1147.1,55.9,1147.1,56.7z"/>
<path d="M1170.3,64.2c-0.1-0.1-0.1-0.2-0.2-0.3s-0.1-0.2-0.1-0.3s-0.1-0.2-0.1-0.4v-0.5c-0.1,0.3-0.3,0.5-0.5,0.7s-0.5,0.3-0.8,0.5
	c-0.3,0.1-0.6,0.2-0.9,0.3s-0.7,0.1-1,0.1c-0.6,0-1.2-0.1-1.7-0.3s-0.9-0.6-1.3-1s-0.6-0.9-0.8-1.5c-0.2-0.6-0.3-1.3-0.3-2v-6.3h2.1
	v6.3c0,0.9,0.2,1.6,0.5,2.2c0.3,0.5,0.9,0.8,1.6,0.8c0.4,0,0.8-0.1,1.2-0.2s0.7-0.2,1-0.4s0.5-0.4,0.7-0.6c0.2-0.2,0.3-0.5,0.3-0.7
	v-7.3h2.1v11L1170.3,64.2L1170.3,64.2z"/>
<path d="M1185.5,57.8c0,0.2,0,0.5-0.1,0.7s-0.2,0.4-0.4,0.5c-0.1,0.1-0.3,0.2-0.5,0.3s-0.3,0.1-0.5,0.1h-7.7
	c0.1,0.4,0.2,0.8,0.4,1.2s0.5,0.7,0.8,1s0.7,0.5,1.1,0.6c0.4,0.2,0.8,0.2,1.3,0.2c0.3,0,0.6,0,0.9-0.1s0.6-0.2,0.8-0.3
	c0.1-0.1,0.3-0.1,0.4-0.2s0.3-0.1,0.4-0.1c0.2,0,0.4,0,0.6,0.1s0.4,0.2,0.5,0.4l0.4,0.4c-0.5,0.6-1.1,1-1.8,1.3
	c-0.7,0.3-1.5,0.5-2.3,0.5s-1.5-0.1-2.2-0.4s-1.3-0.7-1.8-1.2s-0.9-1.1-1.2-1.8c-0.3-0.7-0.4-1.4-0.4-2.2s0.1-1.5,0.4-2.2
	s0.7-1.3,1.2-1.8s1.1-0.9,1.8-1.2c0.7-0.3,1.4-0.4,2.2-0.4c0.7,0,1.3,0.1,1.9,0.3s1.1,0.5,1.6,0.9s0.9,0.8,1.2,1.3s0.6,1.1,0.8,1.7
	v0.2L1185.5,57.8z M1177.2,57.3h6.2c-0.1-0.3-0.3-0.6-0.5-0.9s-0.5-0.5-0.8-0.7s-0.6-0.4-1-0.5s-0.7-0.2-1.1-0.2s-0.8,0.1-1.2,0.2
	c-0.4,0.1-0.7,0.3-1,0.5s-0.6,0.5-0.8,0.8c-0.2,0.3-0.4,0.7-0.5,1c0.1-0.1,0.1-0.2,0.3-0.2C1176.9,57.4,1177,57.3,1177.2,57.3z"/>
<path d="M1189.6,53.2c0.1,0.1,0.1,0.2,0.2,0.3s0.1,0.2,0.1,0.3s0.1,0.2,0.1,0.4V55c0.1-0.3,0.3-0.5,0.5-0.7s0.5-0.4,0.8-0.6
	c0.3-0.2,0.6-0.3,0.9-0.4c0.3-0.1,0.7-0.1,1-0.1c0.6,0,1.1,0.1,1.6,0.3l-0.2,0.9c-0.1,0.3-0.2,0.5-0.4,0.7c-0.2,0.2-0.4,0.2-0.7,0.2
	h-0.1l0,0h-0.1c0,0-0.1,0-0.2,0c-0.4,0-0.8,0.1-1.2,0.2s-0.7,0.3-1,0.5s-0.5,0.4-0.7,0.7c-0.2,0.2-0.3,0.5-0.3,0.8v7h-2.1v-11h1.8
	V53.2z"/>
<path d="M1194.8,53.2h1.2c0.2,0,0.3,0,0.5,0.1s0.3,0.1,0.4,0.2c0.1,0.1,0.3,0.2,0.4,0.3s0.2,0.3,0.2,0.4l2.4,5.6
	c0.2,0.5,0.3,0.9,0.3,1.3c0,0.1,0,0.2,0,0.3l-0.1,0.3c0.1-0.2,0.4-0.9,0.9-2.1c0.5-1.2,1.2-2.8,2.1-4.8l0.2-0.6
	c0.1-0.3,0.3-0.5,0.6-0.7c0.3-0.2,0.6-0.3,0.9-0.3h1.2l-6.1,14.1c-0.1,0.3-0.3,0.6-0.6,0.7c-0.3,0.2-0.6,0.3-0.9,0.3h-1.2l2.1-4.7
	L1194.8,53.2z"/>
<polygon points="133.7,66.6 131.3,66.6 131.3,59.1 122.1,59.1 122.1,66.6 119.7,66.6 119.7,49.4 122.1,49.4 122.1,56.8 131.3,56.8 
	131.3,49.4 133.7,49.4 "/>
<polygon points="136.2,51.8 136.2,49.4 149.2,49.4 149.2,51.8 143.9,51.8 143.9,66.6 141.5,66.6 141.5,51.8 "/>
<path d="M170.2,66.6h-2.4V52.9v0.2c0,0.1,0,0.2-0.1,0.3c0,0.1,0,0.2-0.1,0.3c0,0.1-0.1,0.2-0.1,0.3L162,66.6h-2.3L154.2,54l-0.1-0.2
	c0-0.1,0-0.2-0.1-0.3c0-0.1,0-0.2,0-0.3V53v13.5h-2.4V49.4h2c0.4,0,0.7,0.1,1,0.3s0.5,0.5,0.7,0.8l5.4,12.3c0.1,0.2,0.1,0.3,0.2,0.5
	c0,0.2,0.1,0.4,0.1,0.6c0-0.4,0.1-0.8,0.2-1.1l5.4-12.3c0.2-0.3,0.4-0.6,0.7-0.8s0.6-0.3,1-0.3h2L170.2,66.6L170.2,66.6z"/>
<polygon points="174.4,66.6 174.4,49.4 176.8,49.4 176.8,64.2 184.2,64.2 184.2,66.6 "/>
<path d="M337.7,57.9c0,0.9,0.2,1.7,0.5,2.5s0.8,1.5,1.4,2s1.3,1,2,1.4c0.8,0.3,1.6,0.5,2.5,0.5c0.7,0,1.3-0.1,1.9-0.3
	c0.6-0.2,1.2-0.5,1.7-0.8c0.3-0.2,0.6-0.3,1-0.3c0.3,0,0.5,0,0.8,0.1s0.4,0.2,0.6,0.4l0.4,0.4c-0.4,0.4-0.8,0.8-1.3,1.2
	c-0.5,0.3-1,0.6-1.5,0.9c-0.5,0.2-1.1,0.4-1.7,0.6c-0.6,0.1-1.2,0.2-1.8,0.2c-1.2,0-2.4-0.2-3.4-0.7c-1.1-0.5-2-1.1-2.8-1.9
	c-0.8-0.8-1.4-1.7-1.9-2.8s-0.7-2.2-0.7-3.4c0-0.8,0.1-1.6,0.3-2.3s0.5-1.4,0.9-2.1c0.4-0.7,0.8-1.2,1.4-1.8c0.5-0.5,1.1-1,1.8-1.4
	c0.7-0.4,1.4-0.7,2.1-0.9s1.5-0.3,2.3-0.3c0.6,0,1.2,0.1,1.8,0.2c0.6,0.1,1.2,0.3,1.7,0.6c0.5,0.2,1.1,0.5,1.5,0.9
	c0.5,0.3,0.9,0.7,1.3,1.2l-0.4,0.4c-0.2,0.2-0.4,0.3-0.6,0.4s-0.5,0.1-0.7,0.1c-0.4,0-0.7-0.1-1-0.3c-0.5-0.4-1.1-0.6-1.7-0.8
	s-1.3-0.3-1.9-0.3c-0.9,0-1.7,0.2-2.5,0.5s-1.5,0.8-2,1.4s-1,1.3-1.4,2C337.9,56.2,337.7,57,337.7,57.9z"/>
<path d="M359.9,52.2c-0.3-0.2-0.6-0.4-0.9-0.5s-0.6-0.2-0.9-0.2c-0.4,0-0.7,0.1-1.1,0.2c-0.3,0.1-0.6,0.2-0.9,0.4s-0.5,0.4-0.6,0.7
	s-0.2,0.5-0.2,0.8s0.1,0.6,0.2,0.9c0.1,0.2,0.3,0.5,0.5,0.6c0.2,0.2,0.6,0.4,1,0.5c0.4,0.2,0.9,0.3,1.4,0.5c0.3,0.1,0.6,0.2,0.8,0.3
	s0.6,0.2,0.8,0.3c0.3,0.1,0.5,0.2,0.8,0.4s0.5,0.3,0.8,0.5c1.2,0.9,1.8,2.2,1.8,3.7c0,0.8-0.2,1.5-0.5,2.1s-0.8,1.2-1.3,1.7
	s-1.2,0.8-1.9,1.1c-0.7,0.3-1.5,0.4-2.2,0.4c-1.5,0-2.8-0.5-3.9-1.4c-0.2-0.2-0.4-0.4-0.6-0.6s-0.3-0.4-0.4-0.5
	c-0.1-0.2-0.2-0.3-0.3-0.5c-0.1-0.1-0.1-0.3-0.2-0.4l0.6-0.3c0.3-0.2,0.6-0.3,0.9-0.3c0.5,0,1,0.2,1.3,0.6l0.2,0.2
	c0.3,0.3,0.6,0.5,1,0.6c0.4,0.1,0.8,0.2,1.3,0.2c0.4,0,0.8-0.1,1.2-0.2c0.4-0.1,0.8-0.3,1.1-0.6c0.3-0.2,0.6-0.5,0.8-0.9
	c0.2-0.4,0.3-0.8,0.3-1.3s-0.1-0.8-0.3-1.2c-0.2-0.3-0.5-0.6-0.8-0.8s-0.7-0.4-1.1-0.6c-0.4-0.2-0.8-0.3-1.2-0.5
	c-0.6-0.2-1.2-0.5-1.7-0.7s-1.1-0.5-1.5-0.9s-0.8-0.8-1.1-1.3c-0.3-0.5-0.4-1.2-0.4-1.9s0.1-1.3,0.4-1.9c0.3-0.6,0.7-1,1.2-1.4
	s1-0.7,1.6-0.9s1.2-0.3,1.9-0.3c0.5,0,0.9,0.1,1.4,0.2c0.5,0.2,0.9,0.4,1.3,0.6c0.4,0.2,0.8,0.5,1.1,0.8c0.3,0.3,0.6,0.6,0.8,0.8
	l-0.6,0.5c-0.3,0.3-0.7,0.4-1.2,0.4C360.6,52.5,360.2,52.4,359.9,52.2z"/>
<path d="M372.7,52.2c-0.3-0.2-0.6-0.4-0.9-0.5s-0.6-0.2-0.9-0.2c-0.4,0-0.7,0.1-1.1,0.2c-0.3,0.1-0.6,0.2-0.9,0.4s-0.5,0.4-0.6,0.7
	s-0.2,0.5-0.2,0.8s0.1,0.6,0.2,0.9c0.1,0.2,0.3,0.5,0.5,0.6c0.2,0.2,0.6,0.4,1,0.5c0.4,0.2,0.9,0.3,1.4,0.5c0.3,0.1,0.6,0.2,0.8,0.3
	s0.6,0.2,0.8,0.3c0.3,0.1,0.5,0.2,0.8,0.4s0.5,0.3,0.8,0.5c1.2,0.9,1.8,2.2,1.8,3.7c0,0.8-0.2,1.5-0.5,2.1s-0.8,1.2-1.3,1.7
	s-1.2,0.8-1.9,1.1c-0.7,0.3-1.5,0.4-2.2,0.4c-1.5,0-2.8-0.5-3.9-1.4c-0.2-0.2-0.4-0.4-0.6-0.6s-0.3-0.4-0.4-0.5
	c-0.1-0.2-0.2-0.3-0.3-0.5c-0.1-0.1-0.1-0.3-0.2-0.4l0.6-0.3c0.3-0.2,0.6-0.3,0.9-0.3c0.5,0,1,0.2,1.3,0.6l0.2,0.2
	c0.3,0.3,0.6,0.5,1,0.6c0.4,0.1,0.8,0.2,1.3,0.2c0.4,0,0.8-0.1,1.2-0.2c0.4-0.1,0.8-0.3,1.1-0.6c0.3-0.2,0.6-0.5,0.8-0.9
	c0.2-0.4,0.3-0.8,0.3-1.3s-0.1-0.8-0.3-1.2c-0.2-0.3-0.5-0.6-0.8-0.8s-0.7-0.4-1.1-0.6c-0.4-0.2-0.8-0.3-1.2-0.5
	c-0.6-0.2-1.2-0.5-1.7-0.7s-1.1-0.5-1.5-0.9s-0.8-0.8-1.1-1.3c-0.3-0.5-0.4-1.2-0.4-1.9s0.1-1.3,0.4-1.9c0.3-0.6,0.7-1,1.2-1.4
	s1-0.7,1.6-0.9s1.2-0.3,1.9-0.3c0.5,0,0.9,0.1,1.4,0.2c0.5,0.2,0.9,0.4,1.3,0.6c0.4,0.2,0.8,0.5,1.1,0.8c0.3,0.3,0.6,0.6,0.8,0.8
	l-0.6,0.5c-0.3,0.3-0.7,0.4-1.2,0.4C373.3,52.5,373,52.4,372.7,52.2z"/>
<rect x="1334.5" y="51.1" width="1.9" height="13.6"/>
<rect x="1340" y="52.8" width="1.9" height="11.9"/>
<rect x="1345" y="52.8" width="1.9" height="11.9"/>
<path d="M1356.6,64.7l-0.1-0.2c0-0.1-0.1-0.2-0.1-0.3c0-0.1,0-0.2,0-0.3v-0.4c-0.1,0.2-0.3,0.4-0.5,0.6c-0.2,0.2-0.4,0.3-0.7,0.4
	c-0.3,0.1-0.5,0.2-0.8,0.3c-0.3,0.1-0.6,0.1-0.9,0.1c-0.6,0-1.1-0.1-1.5-0.3c-0.5-0.2-0.9-0.5-1.2-0.9c-0.3-0.4-0.6-0.9-0.8-1.4
	c-0.2-0.5-0.3-1.2-0.3-1.8v-5.7h1.9v5.7c0,0.8,0.2,1.5,0.5,2s0.8,0.7,1.4,0.7c0.4,0,0.7,0,1.1-0.1c0.3-0.1,0.6-0.2,0.9-0.4
	s0.5-0.3,0.6-0.6c0.2-0.2,0.2-0.4,0.3-0.7v-6.6h1.9v10h-1.7V64.7z"/>
<path d="M1360.7,62.6c0.1-0.1,0.3-0.1,0.4-0.2c0.1,0,0.2-0.1,0.4-0.1c0.2,0,0.3,0,0.5,0.1c0.1,0.1,0.3,0.2,0.5,0.3
	c0.1,0.1,0.3,0.2,0.5,0.2s0.3,0.1,0.5,0.1s0.4,0,0.6-0.1s0.4-0.1,0.5-0.3c0.2-0.1,0.3-0.3,0.4-0.4c0.1-0.2,0.1-0.4,0.1-0.6
	c0-0.2,0-0.3-0.1-0.5c-0.1-0.1-0.1-0.2-0.3-0.3c-0.1-0.1-0.3-0.2-0.5-0.3s-0.5-0.2-0.8-0.3s-0.7-0.3-1-0.4c-0.3-0.2-0.6-0.3-0.9-0.6
	c-0.3-0.2-0.5-0.5-0.6-0.8c-0.2-0.3-0.2-0.7-0.2-1.1c0-0.4,0.1-0.7,0.3-1.1c0.2-0.3,0.4-0.6,0.7-0.9s0.6-0.4,1-0.6
	c0.4-0.1,0.7-0.2,1.1-0.2s0.7,0.1,1.1,0.2c0.3,0.1,0.6,0.3,0.8,0.5s0.4,0.3,0.6,0.5c0.1,0.2,0.2,0.3,0.3,0.3l-0.4,0.4
	c-0.3,0.2-0.6,0.3-0.9,0.3c-0.1,0-0.3,0-0.4-0.1s-0.3-0.1-0.5-0.2c-0.1-0.1-0.3-0.1-0.4-0.1c-0.2,0-0.5,0-0.6,0.1
	c-0.2,0.1-0.3,0.2-0.4,0.3s-0.2,0.2-0.2,0.3s-0.1,0.2-0.1,0.3c0,0.2,0,0.3,0.1,0.5c0.1,0.1,0.2,0.2,0.4,0.3c0.2,0.1,0.3,0.2,0.5,0.2
	c0.2,0.1,0.4,0.1,0.6,0.2c0.4,0.1,0.7,0.3,1.1,0.4c0.4,0.2,0.7,0.4,0.9,0.6s0.5,0.5,0.7,0.9c0.2,0.3,0.2,0.7,0.2,1.2
	c0,0.4-0.1,0.8-0.3,1.2c-0.2,0.4-0.4,0.7-0.7,1c-0.3,0.3-0.7,0.5-1.1,0.7c-0.4,0.2-0.9,0.3-1.4,0.3c-0.3,0-0.7,0-1-0.1
	s-0.6-0.2-0.9-0.4s-0.5-0.4-0.8-0.6c-0.2-0.2-0.4-0.5-0.6-0.8L1360.7,62.6z"/>
<path d="M1371.5,62.2c0,0.1,0,0.2,0,0.3s0.1,0.2,0.1,0.3l0.2,0.2c0.1,0.1,0.2,0.1,0.3,0.1h0.2c0.3-0.1,0.5-0.1,0.7-0.1
	c0.3,0,0.5,0.1,0.7,0.2c0.2,0.1,0.4,0.3,0.5,0.5l0.2,0.3c-0.1,0.1-0.3,0.2-0.5,0.3s-0.4,0.2-0.6,0.3c-0.2,0.1-0.4,0.1-0.7,0.2
	s-0.4,0.1-0.6,0.1c-0.4,0-0.8-0.1-1.1-0.2c-0.3-0.1-0.6-0.3-0.8-0.6c-0.2-0.2-0.4-0.5-0.5-0.8s-0.2-0.7-0.2-1.1v-5.7h-1.7v-1
	c0-0.5,0.5-0.8,1.5-0.8h0.2v-2.1c0-0.2,0-0.4,0.1-0.6c0-0.2,0.1-0.3,0.2-0.5s0.1-0.3,0.2-0.4h1.4v3.5h2.8v1.8h-2.8v5.8H1371.5z"/>
<path d="M1377.9,54.8l0.1,0.2c0,0.1,0.1,0.2,0.1,0.3s0,0.2,0,0.3v0.7c0.1-0.2,0.3-0.4,0.5-0.6c0.2-0.2,0.4-0.4,0.7-0.5
	c0.3-0.1,0.5-0.3,0.8-0.4c0.3-0.1,0.6-0.1,0.9-0.1c0.5,0,1,0.1,1.5,0.3l-0.1,0.8c-0.1,0.3-0.2,0.5-0.3,0.6c-0.2,0.1-0.4,0.2-0.7,0.2
	h-0.1l0,0h-0.1h-0.2c-0.4,0-0.7,0.1-1.1,0.2c-0.3,0.1-0.6,0.3-0.9,0.4s-0.5,0.4-0.6,0.6c-0.2,0.2-0.2,0.5-0.3,0.7v6.3h-1.9v-10
	C1376.2,54.8,1377.9,54.8,1377.9,54.8z"/>
<path d="M1383.5,56.2c0.1-0.1,0.1-0.2,0.2-0.3s0.2-0.2,0.3-0.3c0.1-0.1,0.2-0.2,0.4-0.3c0.4-0.2,0.8-0.4,1.2-0.6
	c0.4-0.1,0.9-0.2,1.5-0.2c0.5,0,1,0.1,1.4,0.2c0.4,0.1,0.8,0.3,1,0.6c0.3,0.2,0.5,0.5,0.7,0.8s0.3,0.7,0.4,1.1
	c0.1,0.4,0.2,0.8,0.2,1.2s0.1,0.8,0.1,1.3v5h-1.5c-0.1-0.1-0.2-0.2-0.2-0.4s-0.1-0.3-0.1-0.4v-0.3c-0.2,0.2-0.4,0.3-0.6,0.5
	c-0.3,0.1-0.5,0.3-0.8,0.4s-0.5,0.2-0.8,0.2s-0.5,0.1-0.7,0.1c-0.5,0-1-0.1-1.4-0.2s-0.8-0.3-1.1-0.6c-0.3-0.3-0.5-0.6-0.7-1
	s-0.2-0.8-0.2-1.2c0-0.5,0.1-0.9,0.3-1.3c0.2-0.4,0.5-0.7,0.8-1s0.9-0.5,1.4-0.7s1.2-0.2,2-0.2c0.2,0,0.4,0,0.6,0s0.4,0,0.5,0
	c0.2,0,0.3,0,0.4,0s0.2,0,0.2,0c0-0.5-0.1-0.9-0.2-1.2s-0.3-0.5-0.5-0.7s-0.4-0.3-0.6-0.4s-0.5-0.1-0.7-0.1c-0.3,0-0.6,0-0.7,0.1
	c-0.2,0.1-0.3,0.1-0.5,0.2c-0.1,0.1-0.3,0.1-0.4,0.2s-0.3,0.1-0.5,0.1s-0.3,0-0.5-0.1c-0.1-0.1-0.3-0.1-0.4-0.2L1383.5,56.2z
	 M1386.2,63.1c0.2,0,0.5,0,0.7-0.1c0.3,0,0.5-0.1,0.8-0.2s0.5-0.2,0.8-0.3s0.5-0.2,0.7-0.4v-1.7c0,0-0.1,0-0.2,0s-0.2,0-0.4,0
	c-0.2,0-0.3,0-0.5,0s-0.4,0-0.6,0c-0.4,0-0.8,0-1.1,0.1c-0.3,0.1-0.6,0.1-0.9,0.2c-0.3,0.1-0.4,0.3-0.6,0.4
	c-0.1,0.2-0.2,0.4-0.2,0.7c0,0.2,0,0.4,0.1,0.6s0.2,0.3,0.3,0.4c0.1,0.1,0.3,0.2,0.5,0.2C1385.8,63.1,1386,63.1,1386.2,63.1z"/>
<path d="M1396,62.2c0,0.1,0,0.2,0,0.3s0.1,0.2,0.1,0.3l0.2,0.2c0.1,0.1,0.2,0.1,0.3,0.1h0.2c0.3-0.1,0.5-0.1,0.7-0.1
	c0.3,0,0.5,0.1,0.7,0.2c0.2,0.1,0.4,0.3,0.5,0.5l0.2,0.3c-0.1,0.1-0.3,0.2-0.5,0.3s-0.4,0.2-0.6,0.3c-0.2,0.1-0.4,0.1-0.7,0.2
	s-0.4,0.1-0.6,0.1c-0.4,0-0.8-0.1-1.1-0.2c-0.3-0.1-0.6-0.3-0.8-0.6c-0.2-0.2-0.4-0.5-0.5-0.8s-0.2-0.7-0.2-1.1v-5.7h-1.7v-1
	c0-0.5,0.5-0.8,1.5-0.8h0.2v-2.1c0-0.2,0-0.4,0.1-0.6c0-0.2,0.1-0.3,0.2-0.5s0.1-0.3,0.2-0.4h1.4v3.5h2.8v1.8h-2.8v5.8H1396z"/>
<path d="M1399.7,59.7c0-0.7,0.1-1.4,0.4-2s0.6-1.2,1.1-1.6c0.5-0.5,1-0.8,1.6-1.1s1.3-0.4,2-0.4s1.4,0.1,2,0.4
	c0.6,0.3,1.2,0.6,1.6,1.1c0.5,0.5,0.8,1,1.1,1.6c0.3,0.6,0.4,1.3,0.4,2s-0.1,1.4-0.4,2s-0.6,1.2-1.1,1.6c-0.5,0.5-1,0.8-1.6,1.1
	s-1.3,0.4-2,0.4s-1.4-0.1-2-0.4s-1.2-0.6-1.6-1.1c-0.5-0.5-0.8-1-1.1-1.6C1399.8,61.1,1399.7,60.5,1399.7,59.7z M1401.5,59.7
	c0,0.5,0.1,0.9,0.3,1.3c0.2,0.4,0.4,0.7,0.7,1c0.3,0.3,0.6,0.5,1,0.7s0.8,0.3,1.3,0.3s0.9-0.1,1.3-0.3s0.7-0.4,1-0.7s0.5-0.6,0.7-1
	s0.3-0.8,0.3-1.3s-0.1-0.9-0.3-1.3c-0.2-0.4-0.4-0.7-0.7-1s-0.6-0.5-1-0.7s-0.8-0.3-1.3-0.3s-0.9,0.1-1.3,0.3s-0.7,0.4-1,0.7
	s-0.5,0.6-0.7,1C1401.6,58.9,1401.5,59.3,1401.5,59.7z"/>
<path d="M1413.6,54.8l0.1,0.2c0,0.1,0.1,0.2,0.1,0.3s0,0.2,0,0.3v0.7c0.1-0.2,0.3-0.4,0.5-0.6c0.2-0.2,0.4-0.4,0.7-0.5
	c0.3-0.1,0.5-0.3,0.8-0.4c0.3-0.1,0.6-0.1,0.9-0.1c0.5,0,1,0.1,1.5,0.3l-0.1,0.8c-0.1,0.3-0.2,0.5-0.3,0.6c-0.2,0.1-0.4,0.2-0.7,0.2
	h-0.1l0,0h-0.1h-0.2c-0.4,0-0.7,0.1-1.1,0.2c-0.3,0.1-0.6,0.3-0.9,0.4s-0.5,0.4-0.6,0.6c-0.2,0.2-0.2,0.5-0.3,0.7v6.3h-1.9v-10
	C1411.9,54.8,1413.6,54.8,1413.6,54.8z"/>
<path d="M1538,64.7h-1.8V51.8h4.6c0.6,0,1.1,0.1,1.6,0.3s0.9,0.5,1.3,0.9s0.7,0.8,0.9,1.3c0.2,0.5,0.3,1,0.3,1.6s-0.1,1.1-0.3,1.6
	c-0.2,0.5-0.5,0.9-0.9,1.3c-0.4,0.4-0.8,0.7-1.3,0.9s-1,0.3-1.6,0.3h-2.8L1538,64.7L1538,64.7z M1540.9,58.2c0.3,0,0.6-0.1,0.9-0.2
	c0.3-0.1,0.5-0.3,0.7-0.5s0.4-0.4,0.5-0.7s0.2-0.6,0.2-0.9c0-0.3-0.1-0.6-0.2-0.9c-0.1-0.3-0.3-0.5-0.5-0.7s-0.4-0.4-0.7-0.5
	c-0.3-0.1-0.6-0.2-0.9-0.2h-2.8v4.5h2.8V58.2z"/>
<path d="M1548.4,51.8l0.1,0.2c0,0.1,0.1,0.1,0.1,0.2c0,0.1,0,0.2,0,0.3v3.8c0.1-0.2,0.3-0.4,0.5-0.6c0.2-0.2,0.4-0.3,0.6-0.4
	c0.2-0.1,0.5-0.2,0.8-0.2c0.3-0.1,0.6-0.1,0.9-0.1c0.5,0,1,0.1,1.4,0.3s0.8,0.5,1.1,0.8c0.3,0.4,0.5,0.8,0.7,1.3s0.3,1.1,0.3,1.7
	v5.4h-1.8v-5.4c0-0.8-0.1-1.4-0.4-1.8c-0.3-0.4-0.7-0.7-1.3-0.7c-0.4,0-0.7,0-1,0.1s-0.6,0.2-0.9,0.4c-0.2,0.2-0.4,0.3-0.6,0.5
	c-0.1,0.2-0.2,0.4-0.3,0.6v6.3h-1.8V51.8H1548.4z"/>
<path d="M1556.7,60c0-0.7,0.1-1.3,0.4-1.9c0.3-0.6,0.6-1.1,1-1.5s1-0.8,1.5-1c0.6-0.3,1.2-0.4,1.9-0.4s1.3,0.1,1.9,0.4
	c0.6,0.3,1.1,0.6,1.5,1s0.8,1,1,1.5c0.3,0.6,0.4,1.2,0.4,1.9s-0.1,1.3-0.4,1.9c-0.3,0.6-0.6,1.1-1,1.5s-1,0.8-1.5,1
	s-1.2,0.4-1.9,0.4s-1.3-0.1-1.9-0.4s-1.1-0.6-1.5-1s-0.8-1-1-1.5C1556.8,61.3,1556.7,60.7,1556.7,60z M1558.4,60
	c0,0.4,0.1,0.8,0.2,1.2c0.2,0.4,0.4,0.7,0.7,1c0.3,0.3,0.6,0.5,1,0.7s0.8,0.2,1.2,0.2c0.4,0,0.8-0.1,1.2-0.2c0.4-0.2,0.7-0.4,1-0.7
	s0.5-0.6,0.7-1s0.2-0.8,0.2-1.2s-0.1-0.8-0.2-1.2c-0.2-0.4-0.4-0.7-0.7-1c-0.3-0.3-0.6-0.5-1-0.7s-0.8-0.2-1.2-0.2
	c-0.4,0-0.8,0.1-1.2,0.2c-0.4,0.2-0.7,0.4-1,0.7s-0.5,0.6-0.7,1C1558.5,59.2,1558.4,59.6,1558.4,60z"/>
<path d="M1570.5,62.4c0,0.1,0,0.2,0,0.3s0.1,0.2,0.1,0.3l0.2,0.2c0.1,0.1,0.2,0.1,0.3,0.1h0.2c0.3-0.1,0.5-0.1,0.7-0.1
	s0.5,0.1,0.6,0.2c0.2,0.1,0.3,0.3,0.5,0.5l0.2,0.3c-0.1,0.1-0.3,0.2-0.4,0.3c-0.2,0.1-0.4,0.2-0.6,0.3s-0.4,0.1-0.6,0.2
	c-0.2,0-0.4,0.1-0.6,0.1c-0.4,0-0.7-0.1-1-0.2s-0.6-0.3-0.8-0.5c-0.2-0.2-0.4-0.5-0.5-0.8s-0.2-0.6-0.2-1V57h-1.6v-1
	c0-0.5,0.5-0.7,1.4-0.7h0.2v-1.9c0-0.2,0-0.4,0.1-0.5s0.1-0.3,0.1-0.4c0.1-0.1,0.1-0.3,0.2-0.4h1.4v3.3h2.6V57h-2.6v5.4H1570.5z"/>
<path d="M1574,60c0-0.7,0.1-1.3,0.4-1.9c0.3-0.6,0.6-1.1,1-1.5s1-0.8,1.5-1c0.6-0.3,1.2-0.4,1.9-0.4s1.3,0.1,1.9,0.4
	c0.6,0.3,1.1,0.6,1.5,1s0.8,1,1,1.5c0.3,0.6,0.4,1.2,0.4,1.9s-0.1,1.3-0.4,1.9c-0.3,0.6-0.6,1.1-1,1.5s-1,0.8-1.5,1
	s-1.2,0.4-1.9,0.4s-1.3-0.1-1.9-0.4s-1.1-0.6-1.5-1s-0.8-1-1-1.5C1574.1,61.3,1574,60.7,1574,60z M1575.7,60c0,0.4,0.1,0.8,0.2,1.2
	c0.2,0.4,0.4,0.7,0.7,1c0.3,0.3,0.6,0.5,1,0.7s0.8,0.2,1.2,0.2c0.4,0,0.8-0.1,1.2-0.2c0.4-0.2,0.7-0.4,1-0.7s0.5-0.6,0.7-1
	s0.2-0.8,0.2-1.2s-0.1-0.8-0.2-1.2c-0.2-0.4-0.4-0.7-0.7-1c-0.3-0.3-0.6-0.5-1-0.7s-0.8-0.2-1.2-0.2c-0.4,0-0.8,0.1-1.2,0.2
	c-0.4,0.2-0.7,0.4-1,0.7s-0.5,0.6-0.7,1C1575.8,59.2,1575.7,59.6,1575.7,60z"/>
<path d="M1585.4,62.7c0.1-0.1,0.2-0.1,0.4-0.1c0.1,0,0.2-0.1,0.4-0.1c0.2,0,0.3,0,0.4,0.1s0.3,0.2,0.5,0.3c0.1,0.1,0.3,0.2,0.5,0.2
	s0.3,0.1,0.5,0.1s0.4,0,0.6-0.1s0.3-0.1,0.5-0.3s0.3-0.2,0.4-0.4s0.1-0.4,0.1-0.6c0-0.2,0-0.3-0.1-0.4s-0.1-0.2-0.3-0.3
	c-0.1-0.1-0.3-0.2-0.5-0.3s-0.5-0.2-0.8-0.3s-0.7-0.2-1-0.4s-0.6-0.3-0.9-0.5s-0.5-0.5-0.6-0.8c-0.2-0.3-0.2-0.7-0.2-1.1
	c0-0.4,0.1-0.7,0.3-1c0.2-0.3,0.4-0.6,0.7-0.8c0.3-0.2,0.6-0.4,0.9-0.5s0.7-0.2,1.1-0.2s0.7,0.1,1,0.2c0.3,0.1,0.6,0.3,0.8,0.5
	c0.2,0.2,0.4,0.3,0.5,0.5c0.1,0.1,0.2,0.2,0.2,0.3l-0.4,0.4c-0.3,0.2-0.5,0.3-0.9,0.3c-0.1,0-0.2,0-0.4-0.1
	c-0.1-0.1-0.3-0.1-0.5-0.2c-0.1-0.1-0.2-0.1-0.4-0.1c-0.2,0-0.4,0-0.6,0.1s-0.3,0.1-0.4,0.2c-0.1,0.1-0.2,0.2-0.2,0.3
	s-0.1,0.2-0.1,0.2c0,0.2,0,0.3,0.1,0.4c0.1,0.1,0.2,0.2,0.4,0.3c0.1,0.1,0.3,0.2,0.5,0.2c0.2,0.1,0.4,0.1,0.6,0.2
	c0.4,0.1,0.7,0.3,1,0.4c0.3,0.2,0.6,0.3,0.9,0.6c0.3,0.2,0.5,0.5,0.6,0.8s0.2,0.7,0.2,1.1c0,0.4-0.1,0.8-0.2,1.2
	c-0.2,0.4-0.4,0.7-0.7,1c-0.3,0.3-0.6,0.5-1,0.7s-0.8,0.2-1.3,0.2c-0.3,0-0.6,0-0.9-0.1s-0.6-0.2-0.9-0.4c-0.3-0.2-0.5-0.4-0.7-0.6
	s-0.4-0.5-0.6-0.8L1585.4,62.7z"/>
<path d="M1594.9,51.8l0.1,0.2c0,0.1,0.1,0.1,0.1,0.2c0,0.1,0,0.2,0,0.3v3.8c0.1-0.2,0.3-0.4,0.5-0.6c0.2-0.2,0.4-0.3,0.6-0.4
	c0.2-0.1,0.5-0.2,0.8-0.2c0.3-0.1,0.6-0.1,0.9-0.1c0.5,0,1,0.1,1.4,0.3s0.8,0.5,1.1,0.8c0.3,0.4,0.5,0.8,0.7,1.3s0.3,1.1,0.3,1.7
	v5.4h-1.8v-5.4c0-0.8-0.1-1.4-0.4-1.8c-0.3-0.4-0.7-0.7-1.3-0.7c-0.4,0-0.7,0-1,0.1s-0.6,0.2-0.9,0.4c-0.2,0.2-0.4,0.3-0.6,0.5
	c-0.1,0.2-0.2,0.4-0.3,0.6v6.3h-1.8V51.8H1594.9z"/>
<path d="M1603.2,60c0-0.7,0.1-1.3,0.4-1.9c0.3-0.6,0.6-1.1,1-1.5s1-0.8,1.5-1c0.6-0.3,1.2-0.4,1.9-0.4s1.3,0.1,1.9,0.4
	c0.6,0.3,1.1,0.6,1.5,1s0.8,1,1,1.5c0.3,0.6,0.4,1.2,0.4,1.9s-0.1,1.3-0.4,1.9c-0.3,0.6-0.6,1.1-1,1.5s-1,0.8-1.5,1
	s-1.2,0.4-1.9,0.4s-1.3-0.1-1.9-0.4s-1.1-0.6-1.5-1s-0.8-1-1-1.5C1603.3,61.3,1603.2,60.7,1603.2,60z M1604.9,60
	c0,0.4,0.1,0.8,0.2,1.2c0.2,0.4,0.4,0.7,0.7,1c0.3,0.3,0.6,0.5,1,0.7s0.8,0.2,1.2,0.2c0.4,0,0.8-0.1,1.2-0.2c0.4-0.2,0.7-0.4,1-0.7
	s0.5-0.6,0.7-1s0.2-0.8,0.2-1.2s-0.1-0.8-0.2-1.2c-0.2-0.4-0.4-0.7-0.7-1c-0.3-0.3-0.6-0.5-1-0.7s-0.8-0.2-1.2-0.2
	c-0.4,0-0.8,0.1-1.2,0.2c-0.4,0.2-0.7,0.4-1,0.7s-0.5,0.6-0.7,1C1605,59.2,1604.9,59.6,1604.9,60z"/>
<path d="M1616.4,55.3l0.1,0.2c0,0.1,0.1,0.1,0.1,0.2c0,0.1,0,0.2,0,0.3v0.4c0-0.2,0.1-0.3,0.2-0.4c0.1-0.1,0.2-0.2,0.4-0.3
	c0.1-0.1,0.3-0.2,0.5-0.2c0.2-0.1,0.4-0.1,0.5-0.2c0.2,0,0.3-0.1,0.5-0.1s0.3,0,0.4,0c0.7,0,1.3,0.1,1.9,0.4c0.6,0.3,1.1,0.6,1.5,1
	s0.7,1,1,1.5c0.2,0.6,0.4,1.2,0.4,1.9s-0.1,1.3-0.4,1.9c-0.2,0.6-0.6,1.1-1,1.5s-0.9,0.8-1.5,1c-0.6,0.3-1.2,0.4-1.9,0.4
	c-0.2,0-0.4,0-0.6,0s-0.4-0.1-0.6-0.2s-0.4-0.2-0.6-0.3s-0.4-0.3-0.6-0.5v3.9h-1.8V55.3H1616.4z M1619.1,63.1c0.4,0,0.8-0.1,1.2-0.2
	c0.4-0.2,0.7-0.4,0.9-0.7c0.3-0.3,0.5-0.6,0.6-1s0.2-0.8,0.2-1.2s-0.1-0.8-0.2-1.2s-0.3-0.7-0.6-1c-0.3-0.3-0.6-0.5-0.9-0.7
	c-0.4-0.2-0.8-0.2-1.2-0.2c-0.5,0-0.9,0.1-1.3,0.3s-0.8,0.4-1.1,0.8v4.2c0.3,0.3,0.7,0.6,1.1,0.8C1618.2,63,1618.7,63.1,1619.1,63.1
	z"/>
</svg>
